<?xml version="1.0" encoding="utf-8"?>
<!-- Generator: Adobe Illustrator 26.3.1, SVG Export Plug-In . SVG Version: 6.00 Build 0)  -->
<svg version="1.1" id="Layer" xmlns="http://www.w3.org/2000/svg" xmlns:xlink="http://www.w3.org/1999/xlink" x="0px" y="0px"
	 viewBox="0 0 792 612.5" style="enable-background:new 0 0 792 612.5;" xml:space="preserve">
<style type="text/css">
	.st0{fill:#FFFFFF;stroke:#000000;stroke-width:0.846;stroke-miterlimit:10;}
	.st1{fill:none;stroke:#C02328;stroke-width:3.384;stroke-miterlimit:10;}
	.st2{font-family:'MyriadPro-Regular';}
	.st3{font-size:12px;}
	.st4{fill:none;stroke:#6D6E71;stroke-miterlimit:10;}
</style>
<g id="sites">
	<circle class="st0" cx="406.3" cy="469.7" r="1.3"/>
	<circle class="st0" cx="294.6" cy="450.6" r="1.3"/>
	<circle class="st0" cx="489.3" cy="432.7" r="1.3"/>
	<circle class="st0" cx="565.3" cy="419.3" r="1.3"/>
	<circle class="st0" cx="456.4" cy="416.5" r="1.3"/>
	<circle class="st0" cx="423.4" cy="409.4" r="1.3"/>
	<circle class="st0" cx="251.4" cy="406.6" r="1.3"/>
	<circle class="st0" cx="353.4" cy="405.5" r="1.3"/>
	<circle class="st0" cx="460.1" cy="396.6" r="1.3"/>
	<circle class="st0" cx="187.1" cy="396.2" r="1.3"/>
	<circle class="st0" cx="527.7" cy="395.1" r="1.3"/>
	<circle class="st0" cx="439.1" cy="388" r="1.3"/>
	<circle class="st0" cx="466.8" cy="379.6" r="1.3"/>
	<circle class="st0" cx="587.8" cy="377.4" r="1.3"/>
	<circle class="st0" cx="435.3" cy="372" r="1.3"/>
	<circle class="st0" cx="320.1" cy="369.6" r="1.3"/>
	<circle class="st0" cx="442.6" cy="355.2" r="1.3"/>
	<circle class="st0" cx="405.9" cy="354.7" r="1.3"/>
	<circle class="st0" cx="422.9" cy="353" r="1.3"/>
	<circle class="st0" cx="360.5" cy="349.8" r="1.3"/>
	<circle class="st0" cx="492.5" cy="348.3" r="1.3"/>
	<circle class="st0" cx="530.9" cy="348.3" r="1.3"/>
	<circle class="st0" cx="471.3" cy="340.5" r="1.3"/>
	<circle class="st0" cx="443.5" cy="339.8" r="1.3"/>
	<circle class="st0" cx="196.6" cy="337.5" r="1.3"/>
	<circle class="st0" cx="309.1" cy="330.1" r="1.3"/>
	<circle class="st0" cx="402.6" cy="323.8" r="1.3"/>
	<circle class="st0" cx="580.2" cy="313" r="1.3"/>
	<circle class="st0" cx="336.1" cy="305.9" r="1.3"/>
	<circle class="st0" cx="268.9" cy="304.8" r="1.3"/>
	<circle class="st0" cx="126.2" cy="304.6" r="1.3"/>
	<circle class="st0" cx="657.1" cy="300.5" r="1.3"/>
	<circle class="st0" cx="522.3" cy="299.2" r="1.3"/>
	<circle class="st0" cx="463.5" cy="282.4" r="1.3"/>
	<circle class="st0" cx="402.9" cy="273.5" r="1.3"/>
	<circle class="st0" cx="215.8" cy="272.2" r="1.3"/>
	<circle class="st0" cx="579.8" cy="264.7" r="1.3"/>
	<circle class="st0" cx="256.2" cy="260.3" r="1.3"/>
	<circle class="st0" cx="353.4" cy="258.8" r="1.3"/>
	<circle class="st0" cx="293.1" cy="251.1" r="1.3"/>
	<circle class="st0" cx="161.8" cy="248.9" r="1.3"/>
	<circle class="st0" cx="512.4" cy="244.4" r="1.3"/>
	<circle class="st0" cx="450.2" cy="235.3" r="1.3"/>
	<circle class="st0" cx="629" cy="234.4" r="1.3"/>
	<circle class="st0" cx="319.7" cy="229.2" r="1.3"/>
	<circle class="st0" cx="366.6" cy="226.6" r="1.3"/>
	<circle class="st0" cx="243.2" cy="217.4" r="1.3"/>
	<circle class="st0" cx="391.4" cy="215" r="1.3"/>
	<circle class="st0" cx="345.2" cy="210" r="1.3"/>
	<circle class="st0" cx="309.8" cy="204" r="1.3"/>
	<circle class="st0" cx="367" cy="204" r="1.3"/>
	<circle class="st0" cx="544.3" cy="202.5" r="1.3"/>
	<circle class="st0" cx="292.5" cy="199.9" r="1.3"/>
	<circle class="st0" cx="491.6" cy="196.4" r="1.3"/>
	<circle class="st0" cx="381.5" cy="187.6" r="1.3"/>
	<circle class="st0" cx="321.4" cy="187.3" r="1.3"/>
	<circle class="st0" cx="346.5" cy="184.5" r="1.3"/>
	<circle class="st0" cx="407" cy="177.2" r="1.3"/>
	<circle class="st0" cx="376.9" cy="173.1" r="1.3"/>
	<circle class="st0" cx="457.5" cy="158" r="1.3"/>
	<circle class="st0" cx="507.2" cy="154.5" r="1.3"/>
</g>
<g id="ruler">
	<line class="st1" x1="104.9" y1="488.4" x2="169.4" y2="488.4"/>
</g>
<g id="numbers">
	<text transform="matrix(1 0 0 1 161.4253 237.2129)" class="st2 st3">5</text>
	<text transform="matrix(1 0 0 1 122.2764 299.5108)" class="st2 st3">48</text>
	<text transform="matrix(1 0 0 1 203.1514 339.5766)" class="st2 st3">47</text>
	<text transform="matrix(1 0 0 1 207.3261 269.6592)" class="st2 st3">4</text>
	<text transform="matrix(1 0 0 1 256.3471 258.0592)" class="st2 st3">39</text>
	<text transform="matrix(1 0 0 1 239.1815 211.5672)" class="st2 st3">30</text>
	<text transform="matrix(1 0 0 1 285.0282 247.0805)" class="st2 st3">1</text>
	<text transform="matrix(1 0 0 1 285.0282 195.7614)" class="st2 st3">25</text>
	<text transform="matrix(1 0 0 1 334.5601 211.3358)" class="st2 st3">9</text>
	<text transform="matrix(1 0 0 1 366.9856 172.7826)" class="st2 st3">6</text>
	<text transform="matrix(1 0 0 1 383.9216 191.336)" class="st2 st3">55</text>
	<text transform="matrix(1 0 0 1 370.3899 209.2082)" class="st2 st3">10</text>
	<text transform="matrix(1 0 0 1 357.6237 262.0594)" class="st2 st3">14</text>
	<text transform="matrix(1 0 0 1 409.9644 179.5913)" class="st2 st3">8</text>
	<text transform="matrix(1 0 0 1 312.6878 208.953)" class="st2 st3">2</text>
	<text transform="matrix(1 0 0 1 323.9215 186.7403)" class="st2 st3">13</text>
	<text transform="matrix(1 0 0 1 348.943 183.421)" class="st2 st3">7</text>
	<text transform="matrix(1 0 0 1 323.4111 231.421)" class="st2 st3">20</text>
	<text transform="matrix(1 0 0 1 367.8367 234.7401)" class="st2 st3">11</text>
	<text transform="matrix(1 0 0 1 394.1342 220.3616)" class="st2 st3">12</text>
	<text transform="matrix(1 0 0 1 448.7731 230.8296)" class="st2 st3">27</text>
	<text transform="matrix(1 0 0 1 397.7093 266.5742)" class="st2 st3">26</text>
	<text transform="matrix(1 0 0 1 328.5178 302.8296)" class="st2 st3">15</text>
	<text transform="matrix(1 0 0 1 304.7731 324.5317)" class="st2 st3">31</text>
	<text transform="matrix(1 0 0 1 262.3901 304.1062)" class="st2 st3">29</text>
	<text transform="matrix(1 0 0 1 446.7306 157.0424)" class="st2 st3">49</text>
	<text transform="matrix(1 0 0 1 509.5391 157.8083)" class="st2 st3">24</text>
	<text transform="matrix(1 0 0 1 547.0706 203.3972)" class="st2 st3">41</text>
	<text transform="matrix(1 0 0 1 514.39 242.9717)" class="st2 st3">62</text>
	<text transform="matrix(1 0 0 1 583.8369 266.2055)" class="st2 st3">52</text>
	<text transform="matrix(1 0 0 1 621.3685 244.7587)" class="st2 st3">51</text>
	<text transform="matrix(1 0 0 1 644.0922 301.1841)" class="st2 st3">50</text>
	<text transform="matrix(1 0 0 1 584.6028 310.631)" class="st2 st3">60</text>
	<text transform="matrix(1 0 0 1 480.1774 196.8721)" class="st2 st3">23</text>
	<text transform="matrix(1 0 0 1 454.3901 280.1062)" class="st2 st3">22</text>
	<text transform="matrix(1 0 0 1 390.5604 322.9998)" class="st2 st3">44</text>
	<text transform="matrix(1 0 0 1 434.9859 332.4466)" class="st2 st3">21</text>
	<text transform="matrix(1 0 0 1 466.1348 330.1487)" class="st2 st3">40</text>
	<text transform="matrix(1 0 0 1 525.6241 302.3189)" class="st2 st3">37</text>
	<text transform="matrix(1 0 0 1 496.5178 349.0424)" class="st2 st3">42</text>
	<text transform="matrix(1 0 0 1 534.5603 351.0849)" class="st2 st3">53</text>
	<text transform="matrix(1 0 0 1 589.9646 376.3615)" class="st2 st3">43</text>
	<text transform="matrix(1 0 0 1 530.9858 397.8083)" class="st2 st3">59</text>
	<text transform="matrix(1 0 0 1 570.0497 419.7657)" class="st2 st3">54</text>
	<text transform="matrix(1 0 0 1 493.9646 432.787)" class="st2 st3">36</text>
	<text transform="matrix(1 0 0 1 464.0922 400.6168)" class="st2 st3">45</text>
	<text transform="matrix(1 0 0 1 469.4539 381.7232)" class="st2 st3">34</text>
	<text transform="matrix(1 0 0 1 459.2411 420.5317)" class="st2 st3">35</text>
	<text transform="matrix(1 0 0 1 442.9007 390.4041)" class="st2 st3">61</text>
	<text transform="matrix(1 0 0 1 437.539 374.0636)" class="st2 st3">32</text>
	<text transform="matrix(1 0 0 1 445.4539 362.8296)" class="st2 st3">46</text>
	<text transform="matrix(1 0 0 1 419.922 345.7232)" class="st2 st3">56</text>
	<text transform="matrix(1 0 0 1 396.4326 358.2338)" class="st2 st3">33</text>
	<text transform="matrix(1 0 0 1 356.0919 411.4214)" class="st2 st3">57,58</text>
	<text transform="matrix(1 0 0 1 411.2409 409.6342)" class="st2 st3">19</text>
	<text transform="matrix(1 0 0 1 321.3681 372.1021)" class="st2 st3">16</text>
	<text transform="matrix(1 0 0 1 355.3259 347.0801)" class="st2 st3">28</text>
	<text transform="matrix(1 0 0 1 245.2833 399.4205)" class="st2 st3">3</text>
	<text transform="matrix(1 0 0 1 191.6663 398.3992)" class="st2 st3">38</text>
	<text transform="matrix(1 0 0 1 297.6237 448.4418)" class="st2 st3">17</text>
	<text transform="matrix(1 0 0 1 395.9216 466.8248)" class="st2 st3">18</text>
</g>
<g id="tiles">
	<polygon class="st4" points="376.5,215.5 390.6,245.5 415.4,240.7 426.9,207.5 399.9,196.4 382.2,202.8 	"/>
	<polygon class="st4" points="433.6,347 432.1,360.6 452.5,369.5 462.8,359.3 457.2,348.3 	"/>
	<polygon class="st4" points="487.8,308.7 458,312.7 457.2,348.3 462.8,359.3 475.9,360.8 492.8,314.8 	"/>
	<polygon class="st4" points="416.1,370.9 408.4,384.1 413.7,385.7 450.8,376.7 452.5,369.5 432.1,360.6 	"/>
	<polygon class="st4" points="412.8,338.4 384.4,341.4 380.1,380.6 389.3,390.2 408.4,384.1 416.1,370.9 	"/>
	<polygon class="st4" points="435.1,265 479.4,252.4 482.9,228.6 452.8,196.5 442.9,195.6 426.9,207.5 415.4,240.7 	"/>
	<polygon class="st4" points="487.8,308.7 492.8,314.8 511.7,326.4 547.9,320 555.3,289.1 542.2,267.3 497.3,275.4 	"/>
	<polygon class="st4" points="369,316.3 337,334.1 333,344.8 348.6,376.6 380.1,380.6 384.4,341.4 	"/>
	<polygon class="st4" points="516.3,214.2 519.9,183 483.3,169.5 452.8,196.5 482.9,228.6 	"/>
	<polygon class="st4" points="479.4,252.4 497.3,275.4 542.2,267.3 550.4,240.2 516.3,214.2 482.9,228.6 	"/>
	<polygon class="st4" points="475.9,360.8 499.1,379.9 511.7,370.5 511.7,326.4 492.8,314.8 	"/>
	<polygon class="st4" points="433.9,304.2 430.2,298.8 373.8,298.6 369,316.3 384.4,341.4 412.8,338.4 423.3,331.1 	"/>
	<polygon class="st4" points="412.8,338.4 416.1,370.9 432.1,360.6 433.6,347 423.3,331.1 	"/>
	<polygon class="st4" points="441.4,406.1 444.8,404.1 453,384 450.8,376.7 413.7,385.7 	"/>
	<polygon class="st4" points="423.3,331.1 433.6,347 457.2,348.3 458,312.7 433.9,304.2 	"/>
	<polygon class="st4" points="370.5,291.8 373.8,298.6 430.2,298.8 435.1,265 415.4,240.7 390.6,245.5 382.4,251.9 	"/>
	<polygon class="st4" points="382.4,251.9 343.6,236 322.6,259.9 320.8,273.6 370.5,291.8 	"/>
	<polygon class="st4" points="390.6,245.5 376.5,215.5 358.3,215.1 343.5,234.3 343.6,236 382.4,251.9 	"/>
	<polygon class="st4" points="433.9,304.2 458,312.7 487.8,308.7 497.3,275.4 479.4,252.4 435.1,265 430.2,298.8 	"/>
	<polygon class="st4" points="373.8,298.6 370.5,291.8 320.8,273.6 302.8,287.7 302.7,295.8 337,334.1 369,316.3 	"/>
	<polygon class="st4" points="598.6,186.8 586.1,219.8 621.1,276.8 665.9,257.8 652.5,225.5 	"/>
	<polygon class="st4" points="327.9,204.3 335.2,196.7 331.2,161.4 297.1,170.8 304.5,187.8 	"/>
	<polygon class="st4" points="353.5,197.7 363.9,186.7 364.1,185.1 352.9,155.4 352.2,155.5 331.2,161.4 335.2,196.7 	"/>
	<polygon class="st4" points="391.8,176.4 395.7,147.7 394.6,147.9 352.9,155.4 364.1,185.1 	"/>
	<polygon class="st4" points="229.7,244.9 269,233 273.9,225.7 259.4,184.7 193.2,209 201.6,230.9 	"/>
	<polygon class="st4" points="173.8,295.3 201.6,230.9 193.2,209 192.9,209.1 161.4,220.9 140.8,235.2 123.2,263.4 173.3,295.5 	"/>
	<polygon class="st4" points="294.3,225.4 295.9,224 304.5,187.8 297.1,170.8 297.1,170.8 259.4,184.7 273.9,225.7 	"/>
	<polygon class="st4" points="516.3,214.2 550.4,240.2 586.1,219.8 598.6,186.8 555.3,155.6 519.9,183 	"/>
	<polygon class="st4" points="519.9,183 555.3,155.6 533.9,140.2 501.5,133 480.9,135.9 483.3,169.5 	"/>
	<polygon class="st4" points="399.9,196.4 426.9,207.5 442.9,195.6 423.2,143.9 395.7,147.7 391.8,176.4 	"/>
	<polygon class="st4" points="542.2,267.3 555.3,289.1 615.7,288.5 621.1,276.8 586.1,219.8 550.4,240.2 	"/>
	<polygon class="st4" points="452.8,196.5 483.3,169.5 480.9,135.9 423.2,143.9 442.9,195.6 	"/>
	<polygon class="st4" points="567.4,347.2 553.9,373.4 558.4,388.7 603.4,412.8 647.7,361.8 624.1,340.5 	"/>
	<polygon class="st4" points="528.8,434.7 532.4,455.3 579.1,440.8 603.4,412.8 558.4,388.7 	"/>
	<polygon class="st4" points="615.7,288.5 624.1,340.5 647.7,361.8 671.4,334.6 676,282.1 665.9,257.8 621.1,276.8 	"/>
	<polygon class="st4" points="494.2,399.3 493.1,399.8 479.8,410.6 453.4,463.9 459.7,477.9 532.4,455.3 528.8,434.7 	"/>
	<polygon class="st4" points="399.9,196.4 391.8,176.4 364.1,185.1 363.9,186.7 382.2,202.8 	"/>
	<polygon class="st4" points="143.6,359 130.8,367.6 149.5,394.5 185.6,422.7 213.9,434.7 224,372 	"/>
	<polygon class="st4" points="433.1,444.7 387,431.6 350.1,462.1 346.8,481.6 381,487.8 425.6,488.4 459.7,477.9 453.4,463.9 	"/>
	<polygon class="st4" points="271.7,361.8 264.5,356.5 247.3,353.5 224,372 213.9,434.7 250.8,450.4 295.6,406.4 	"/>
	<polygon class="st4" points="173.3,295.5 123.2,263.4 123,263.8 105.1,290.8 105.6,321 130.6,367.4 130.8,367.6 143.6,359 	"/>
	<polygon class="st4" points="311.1,411.3 295.6,406.4 250.8,450.4 269,458.1 298.6,472.9 346.8,481.6 350.1,462.1 	"/>
	<polygon class="st4" points="499.1,379.9 494.2,399.3 528.8,434.7 558.4,388.7 553.9,373.4 511.7,370.5 	"/>
	<polygon class="st4" points="511.7,326.4 511.7,370.5 553.9,373.4 567.4,347.2 547.9,320 	"/>
	<polygon class="st4" points="337,334.1 302.7,295.8 264.5,356.5 271.7,361.8 333,344.8 	"/>
	<polygon class="st4" points="302.8,287.7 280.2,277.6 242.5,288.3 228.3,311.4 247.3,353.5 264.5,356.5 302.7,295.8 	"/>
	<polygon class="st4" points="547.9,320 567.4,347.2 624.1,340.5 615.7,288.5 555.3,289.1 	"/>
	<polygon class="st4" points="475.9,360.8 462.8,359.3 452.5,369.5 450.8,376.7 453,384 493.1,399.8 494.2,399.3 499.1,379.9 	"/>
	<polygon class="st4" points="444.8,404.1 479.8,410.6 493.1,399.8 453,384 	"/>
	<polygon class="st4" points="333,344.8 271.7,361.8 295.6,406.4 311.1,411.3 348.6,376.6 	"/>
	<polygon class="st4" points="173.8,295.3 173.3,295.5 143.6,359 224,372 247.3,353.5 228.3,311.4 	"/>
	<polygon class="st4" points="413.7,385.7 408.4,384.1 389.3,390.2 387,431.6 433.1,444.7 441.4,406.1 	"/>
	<polygon class="st4" points="380.1,380.6 348.6,376.6 311.1,411.3 350.1,462.1 387,431.6 389.3,390.2 	"/>
	<polygon class="st4" points="441.4,406.1 433.1,444.7 453.4,463.9 479.8,410.6 444.8,404.1 	"/>
	<polygon class="st4" points="327.9,204.3 304.5,187.8 295.9,224 326.6,211.9 	"/>
	<polygon class="st4" points="343.5,234.3 358.3,215.1 353.5,197.7 335.2,196.7 327.9,204.3 326.6,211.9 	"/>
	<polygon class="st4" points="376.5,215.5 382.2,202.8 363.9,186.7 353.5,197.7 358.3,215.1 	"/>
	<polygon class="st4" points="343.6,236 343.5,234.3 326.6,211.9 295.9,224 294.3,225.4 322.6,259.9 	"/>
	<polygon class="st4" points="280.2,277.6 269,233 229.7,244.9 242.5,288.3 	"/>
	<polygon class="st4" points="302.8,287.7 320.8,273.6 322.6,259.9 294.3,225.4 273.9,225.7 269,233 280.2,277.6 	"/>
	<polygon class="st4" points="242.5,288.3 229.7,244.9 201.6,230.9 173.8,295.3 228.3,311.4 	"/>
</g>
</svg>
