<?xml version="1.0" encoding="utf-8"?>
<!-- Generator: Adobe Illustrator 24.1.2, SVG Export Plug-In . SVG Version: 6.00 Build 0)  -->
<svg version="1.1" id="Layers" xmlns="http://www.w3.org/2000/svg" xmlns:xlink="http://www.w3.org/1999/xlink" x="0px" y="0px"
	 viewBox="0 0 771.3 578.5" style="enable-background:new 0 0 771.3 578.5;" xml:space="preserve">
<style type="text/css">
	.st0{fill:none;stroke:#020202;stroke-width:2;stroke-miterlimit:10;}
	.st1{fill:#93C83E;}
	.st2{fill:#FFFFFF;stroke:#231F20;stroke-width:0.9954;stroke-miterlimit:10;}
	.st3{font-family:'ArialMT';}
	.st4{font-size:4.951px;}
</style>
<g id="ruler_1_">
	<g id="ruler">
		<line id="scale_00000136407661144188538020000009131538397704437939_" class="st0" x1="190.8" y1="530.4" x2="126.3" y2="530.4"/>
	</g>
</g>
<g id="tiles">
	<polygon class="st1" points="303.3,190.3 312.4,174.6 303.6,171.6 293.3,166 280.8,161.2 267.1,161.2 259.3,162.5 250.6,164.6 
		248,165.1 253.4,202.4 	"/>
	<polygon class="st1" points="461.8,214.6 466.8,215.1 470.3,214 490,175.5 472.9,165.7 461.9,162.1 451.2,162.8 417,169.1 
		427.6,193 	"/>
	<polygon class="st1" points="236.4,213.4 252.8,204.8 253.4,202.4 248,165.1 241.2,166.3 218.7,168.6 200.1,174 209.2,212.7 	"/>
	<polygon class="st1" points="383.2,219 399.9,172.2 378.1,176.3 341.7,178.2 344.6,194.5 	"/>
	<polygon class="st1" points="198.8,226 209.2,212.7 200.1,174 168.3,183.5 145.6,206.7 161.8,222.1 	"/>
	<polygon class="st1" points="288.4,219.4 302,204.5 303.3,190.3 253.4,202.4 252.8,204.8 254.8,207.4 	"/>
	<polygon class="st1" points="493.8,229.4 545.1,213.5 516.1,190.7 490,175.5 470.3,214 	"/>
	<polygon class="st1" points="302,204.5 319.8,229.9 343.3,203.6 344.6,194.5 341.7,178.2 312.4,174.6 303.3,190.3 	"/>
	<polygon class="st1" points="383.6,222.3 407.5,235.9 413.9,234.3 427.6,193 417,169.1 399.9,172.2 383.2,219 	"/>
	<polygon class="st1" points="365.9,236.7 383.6,222.3 383.2,219 344.6,194.5 343.3,203.6 354.2,229.7 	"/>
	<polygon class="st1" points="461.8,214.6 427.6,193 413.9,234.3 431.8,244.8 	"/>
	<polygon class="st1" points="288.7,234.7 300.9,243.5 319.5,236.7 319.8,229.9 302,204.5 288.4,219.4 	"/>
	<polygon class="st1" points="288.4,219.4 254.8,207.4 265.4,241.5 288.7,234.7 	"/>
	<polygon class="st1" points="326.4,242.4 354.2,229.7 343.3,203.6 319.8,229.9 319.5,236.7 	"/>
	<polygon class="st1" points="212.7,248.7 236.2,247 236.4,213.4 209.2,212.7 198.8,226 203,240.4 	"/>
	<polygon class="st1" points="252.1,258.4 261.8,249.6 265.4,241.5 254.8,207.4 252.8,204.8 236.4,213.4 236.2,247 	"/>
	<polygon class="st1" points="433.3,248 458.5,260.5 463.3,259.8 466.8,215.1 461.8,214.6 431.8,244.8 	"/>
	<polygon class="st1" points="476,265.5 492.1,260 493.8,229.4 470.3,214 466.8,215.1 463.3,259.8 	"/>
	<polygon class="st1" points="342.2,256.9 365.7,250.6 365.9,236.7 354.2,229.7 326.4,242.4 328.5,247.2 	"/>
	<polygon class="st1" points="365.7,250.6 373.6,262 394.1,263.3 407.5,235.9 383.6,222.3 365.9,236.7 	"/>
	<polygon class="st1" points="492.1,260 497.4,262.7 536.9,246.1 545.2,213.6 545.1,213.5 493.8,229.4 	"/>
	<polygon class="st1" points="203,240.4 198.8,226 161.8,222.1 161.8,249.8 185.3,260.8 	"/>
	<polygon class="st1" points="161.8,249.8 161.8,222.1 145.6,206.7 123.3,229.5 117.9,240.4 116.5,246.7 117.4,272.4 145.9,272 	"/>
	<polygon class="st1" points="300.9,243.5 288.7,234.7 265.4,241.5 261.8,249.6 295.4,264.5 	"/>
	<polygon class="st1" points="538.9,255.1 555.3,272.3 602.3,273.2 597.5,264.3 581.1,241.8 545.2,213.6 536.9,246.1 	"/>
	<polygon class="st1" points="296,267.9 301.4,271.7 318.8,269.3 328.5,247.2 326.4,242.4 319.5,236.7 300.9,243.5 295.4,264.5 	"/>
	<polygon class="st1" points="411.1,287.9 418.4,286 433.3,248 431.8,244.8 413.9,234.3 407.5,235.9 394.1,263.3 	"/>
	<polygon class="st1" points="244.8,272.9 251.7,263.1 252.1,258.4 236.2,247 212.7,248.7 214.3,272.3 	"/>
	<polygon class="st1" points="214.3,272.3 212.7,248.7 203,240.4 185.3,260.8 187,278.5 213.7,273 	"/>
	<polygon class="st1" points="277.2,281.9 296,267.9 295.4,264.5 261.8,249.6 252.1,258.4 251.7,263.1 	"/>
	<polygon class="st1" points="341.5,279.1 342.2,256.9 328.5,247.2 318.8,269.3 335.9,284.5 	"/>
	<polygon class="st1" points="341.5,279.1 365.8,277.4 373.6,262 365.7,250.6 342.2,256.9 	"/>
	<polygon class="st1" points="187,278.5 185.3,260.8 161.8,249.8 145.9,272 170.3,293.4 181,288.6 	"/>
	<polygon class="st1" points="514.4,287 517.9,287.5 523.4,283.9 538.9,255.1 536.9,246.1 497.4,262.7 510,284.1 	"/>
	<polygon class="st1" points="458.5,260.5 433.3,248 418.4,286 438.8,290.8 	"/>
	<polygon class="st1" points="548.2,287.7 555.3,272.3 538.9,255.1 523.4,283.9 	"/>
	<polygon class="st1" points="452.9,304.9 473.1,301 476,265.5 463.3,259.8 458.5,260.5 438.8,290.8 	"/>
	<polygon class="st1" points="371.5,295.2 398.8,303.6 401.8,302.6 411.1,287.9 394.1,263.3 373.6,262 365.8,277.4 	"/>
	<polygon class="st1" points="333.6,292.9 334.1,292.5 335.9,284.5 318.8,269.3 301.4,271.7 306.9,293.2 	"/>
	<polygon class="st1" points="244.4,277.8 244.8,272.9 214.3,272.3 213.7,273 218.9,302.3 224.4,300.7 	"/>
	<polygon class="st1" points="473.1,301 473.9,301.5 510,284.1 497.4,262.7 492.1,260 476,265.5 	"/>
	<polygon class="st1" points="253.4,295.2 276.5,294.7 277.2,281.9 251.7,263.1 244.8,272.9 244.4,277.8 	"/>
	<polygon class="st1" points="218.9,302.3 213.7,273 187,278.5 181,288.6 212.2,307.3 215.4,306.3 	"/>
	<polygon class="st1" points="548.2,287.7 556,313.4 587.4,297.6 602.7,273.8 602.6,273.6 602.3,273.2 555.3,272.3 	"/>
	<polygon class="st1" points="281.9,304.9 287,306.7 299.2,304.1 306.9,293.2 301.4,271.7 296,267.9 277.2,281.9 276.5,294.7 	"/>
	<polygon class="st1" points="334.1,292.5 356.3,307.1 356.6,307.1 371.5,295.2 365.8,277.4 341.5,279.1 335.9,284.5 	"/>
	<polygon class="st1" points="517.9,287.5 532.1,312.2 554.3,315.8 556,313.4 548.2,287.7 523.4,283.9 	"/>
	<polygon class="st1" points="244.4,277.8 224.4,300.7 248.3,308.3 253.4,295.2 	"/>
	<polygon class="st1" points="170.3,293.4 145.9,272 117.4,272.4 118.6,305.8 135.9,335.1 163.5,318.9 	"/>
	<polygon class="st1" points="514.4,287 510,284.1 473.9,301.5 494.7,327 	"/>
	<polygon class="st1" points="281.9,304.9 276.5,294.7 253.4,295.2 248.3,308.3 250.2,313.1 279,307.5 	"/>
	<polygon class="st1" points="325.2,318.1 333.6,292.9 306.9,293.2 299.2,304.1 317,321.3 	"/>
	<polygon class="st1" points="495.3,328.9 507.6,330.9 532.1,312.2 517.9,287.5 514.4,287 494.7,327 	"/>
	<polygon class="st1" points="212.2,307.3 181,288.6 170.3,293.4 163.5,318.9 186.5,330.9 199.3,327 	"/>
	<polygon class="st1" points="423.2,333.8 447.7,320.1 452.9,304.9 438.8,290.8 418.4,286 411.1,287.9 401.8,302.6 	"/>
	<polygon class="st1" points="337.8,324.8 356.3,307.1 334.1,292.5 333.6,292.9 325.2,318.1 	"/>
	<polygon class="st1" points="365.8,327 372.9,331.6 379.9,331.5 398.8,303.6 371.5,295.2 356.6,307.1 	"/>
	<polygon class="st1" points="250.2,313.1 248.3,308.3 224.4,300.7 218.9,302.3 215.4,306.3 233.6,330.2 249.1,323.6 	"/>
	<polygon class="st1" points="250.2,313.1 249.1,323.6 264.5,335.7 279,307.5 	"/>
	<polygon class="st1" points="600,345.1 600.3,345 633,305.7 612,285.9 605.6,278.6 602.7,273.8 587.4,297.6 	"/>
	<polygon class="st1" points="300.9,339.5 310.3,336.8 317,321.3 299.2,304.1 287,306.7 292.3,336.5 	"/>
	<polygon class="st1" points="342.3,334.4 365.8,327 356.6,307.1 356.3,307.1 337.8,324.8 	"/>
	<polygon class="st1" points="555.2,323.6 579.7,349.1 598,347.4 600,345.1 587.4,297.6 556,313.4 554.3,315.8 	"/>
	<polygon class="st1" points="447.7,320.1 456.8,332.9 489.8,336.2 495.3,328.9 494.7,327 473.9,301.5 473.1,301 452.9,304.9 	"/>
	<polygon class="st1" points="287,306.7 281.9,304.9 279,307.5 264.5,335.7 267.3,342.2 273.5,343 292.3,336.5 	"/>
	<polygon class="st1" points="233.6,330.2 215.4,306.3 212.2,307.3 199.3,327 224.8,350.9 225.3,350.6 	"/>
	<polygon class="st1" points="527.3,351.1 533.6,352.6 555.2,323.6 554.3,315.8 532.1,312.2 507.6,330.9 	"/>
	<polygon class="st1" points="390.6,346.5 402.2,349 421.9,340.5 423.2,333.8 401.8,302.6 398.8,303.6 379.9,331.5 	"/>
	<polygon class="st1" points="655.7,350.7 651.6,331.9 650.4,325.3 647.1,319 633,305.7 600.3,345 	"/>
	<polygon class="st1" points="342.3,334.4 337.8,324.8 325.2,318.1 317,321.3 310.3,336.8 327,351.4 339.8,347.2 	"/>
	<polygon class="st1" points="339.8,347.2 354.8,357 356.5,356.8 372.9,331.6 365.8,327 342.3,334.4 	"/>
	<polygon class="st1" points="264.5,335.7 249.1,323.6 233.6,330.2 225.3,350.6 259.8,351.8 267.3,342.2 	"/>
	<polygon class="st1" points="430,352.2 453.4,357.9 456.8,332.9 447.7,320.1 423.2,333.8 421.9,340.5 	"/>
	<polygon class="st1" points="458.5,363.2 481.6,365 489.8,336.2 456.8,332.9 453.4,357.9 	"/>
	<polygon class="st1" points="224.8,350.9 199.3,327 186.5,330.9 187.5,367.1 223.8,353.5 	"/>
	<polygon class="st1" points="187.5,367.1 186.5,330.9 163.5,318.9 135.9,335.1 147.9,355.4 162.1,384.5 186.5,368.7 	"/>
	<polygon class="st1" points="552.8,380.4 579.7,349.1 555.2,323.6 533.6,352.6 	"/>
	<polygon class="st1" points="376,367.2 390.6,346.5 379.9,331.5 372.9,331.6 356.5,356.8 	"/>
	<polygon class="st1" points="292.3,336.5 273.5,343 291.2,372.3 297.6,373 300.9,339.5 	"/>
	<polygon class="st1" points="486.7,372.6 505.1,371.5 527.3,351.1 507.6,330.9 495.3,328.9 489.8,336.2 481.6,365 	"/>
	<polygon class="st1" points="327,351.4 310.3,336.8 300.9,339.5 297.6,373 301.7,375.9 320.8,369.3 	"/>
	<polygon class="st1" points="291.2,372.3 273.5,343 267.3,342.2 259.8,351.8 260.3,362.1 272.7,378.8 	"/>
	<polygon class="st1" points="600,345.1 598,347.4 610.7,391.7 615.3,395.3 635.4,393.8 661,379.6 658.4,372.4 655.9,351.8 
		655.7,350.7 600.3,345 	"/>
	<polygon class="st1" points="421.8,380.6 430,352.2 421.9,340.5 402.2,349 404.2,377.4 	"/>
	<polygon class="st1" points="260.3,362.1 259.8,351.8 225.3,350.6 224.8,350.9 223.8,353.5 228.9,368.4 241.9,376.1 	"/>
	<polygon class="st1" points="382.5,388.1 404.2,377.4 402.2,349 390.6,346.5 376,367.2 	"/>
	<polygon class="st1" points="327,351.4 320.8,369.3 332.2,378.3 346.2,377.2 354.8,357 339.8,347.2 	"/>
	<polygon class="st1" points="453.4,357.9 430,352.2 421.8,380.6 428.1,388.5 442.6,390.3 458.5,363.2 	"/>
	<polygon class="st1" points="527.3,351.1 505.1,371.5 524.8,387.2 551.6,387.2 552.6,386.2 552.8,380.4 533.6,352.6 	"/>
	<polygon class="st1" points="552.8,380.4 552.6,386.2 566.8,392.4 610.7,391.7 598,347.4 579.7,349.1 	"/>
	<polygon class="st1" points="376,367.2 356.5,356.8 354.8,357 346.2,377.2 358.1,391.7 376.1,395.3 380.9,392.1 382.5,388.1 	"/>
	<polygon class="st1" points="228.9,368.4 223.8,353.5 187.5,367.1 186.5,368.7 212.1,386.2 219.2,385.4 	"/>
	<polygon class="st1" points="260.3,362.1 241.9,376.1 248.8,392.4 265.3,393.3 272.7,378.8 	"/>
	<polygon class="st1" points="481.6,365 458.5,363.2 442.6,390.3 443.3,391.2 483.7,387.8 485.7,384.9 486.7,372.6 	"/>
	<polygon class="st1" points="241.9,376.1 228.9,368.4 219.2,385.4 227.4,397.1 242.6,398 248.8,392.4 	"/>
	<polygon class="st1" points="320.8,369.5 301.7,376.1 303.1,391.4 321.6,406.3 328.4,403.6 332.2,378.5 	"/>
	<polygon class="st1" points="485.7,384.9 508.5,401.4 524.8,387.2 505.1,371.5 486.7,372.6 	"/>
	<polygon class="st1" points="346.2,377.2 332.2,378.3 328.4,403.3 338.7,405.6 358.1,391.7 	"/>
	<polygon class="st1" points="212.1,386.2 186.5,368.7 162.1,384.5 172.6,406 204.2,401.8 	"/>
	<polygon class="st1" points="301.7,375.9 297.6,373 291.2,372.3 272.7,378.8 265.3,393.3 278.2,414.7 279.4,414.6 303.1,391.1 	"/>
	<polygon class="st1" points="404.2,377.4 382.5,388.1 380.9,392.1 406,411.3 415.1,411.3 428.1,388.5 421.8,380.6 	"/>
	<polygon class="st1" points="447.8,400.7 463.4,410.3 476.8,408.8 483.7,387.8 443.3,391.2 	"/>
	<polygon class="st1" points="219.2,385.4 212.1,386.2 204.2,401.8 217.5,410.9 227.4,397.1 	"/>
	<polygon class="st1" points="509.6,411.1 542.9,411.1 551.6,387.2 524.8,387.2 508.5,401.4 	"/>
	<polygon class="st1" points="508.5,401.4 485.7,384.9 483.7,387.8 476.8,408.8 488.1,425.5 490.4,426.4 501.9,426.1 509.6,411.1 	
		"/>
	<polygon class="st1" points="338.7,405.6 349.4,424.2 370.9,417.2 376.1,395.3 358.1,391.7 	"/>
	<polygon class="st1" points="242.6,398 227.4,397.1 217.5,410.9 218,414.2 242.1,419.9 	"/>
	<polygon class="st1" points="443.3,391.2 442.6,390.3 428.1,388.5 415.1,411.3 426.6,427 435.1,426.2 447.8,400.7 	"/>
	<polygon class="st1" points="303.1,391.1 279.4,414.6 298.9,426.2 315.2,424.5 321.6,406.1 	"/>
	<polygon class="st1" points="265.3,393.3 248.8,392.4 242.6,398 242.1,419.9 246.3,427.4 261.4,433.6 278.2,414.7 	"/>
	<polygon class="st1" points="579.1,427.7 580.5,428.6 611.9,404.3 615.3,395.3 610.7,391.7 566.8,392.4 	"/>
	<polygon class="st1" points="218,414.2 217.5,410.9 204.2,401.8 172.6,406 178.6,418.1 184.1,437.9 209.4,431.7 	"/>
	<polygon class="st1" points="447.8,400.7 435.1,426.2 452,434.6 463.4,410.3 	"/>
	<polygon class="st1" points="380.9,392.1 376.1,395.3 370.9,417.2 386.2,443.2 386.4,443 406,411.3 	"/>
	<polygon class="st1" points="542.9,411.1 543.1,419.3 552.5,429.9 579.1,427.7 566.8,392.4 552.6,386.2 551.6,387.2 	"/>
	<polygon class="st1" points="543.1,419.3 542.9,411.1 509.6,411.1 501.9,426.1 509.9,433.2 528,432 	"/>
	<polygon class="st1" points="338.7,405.6 328.4,403.3 321.6,406.1 315.2,424.5 323.7,435 344.3,434 349.4,424.2 	"/>
	<polygon class="st1" points="644.6,435.1 672.5,447.3 679.2,434 681.1,420.3 679.5,412.1 671.3,401 664.3,388.6 661,379.6 
		635.4,393.8 	"/>
	<polygon class="st1" points="242.1,419.9 218,414.2 209.4,431.7 224.6,439.9 246.3,427.4 	"/>
	<polygon class="st1" points="463.4,410.3 452,434.6 458.3,445 488.1,425.5 476.8,408.8 	"/>
	<polygon class="st1" points="614.7,450.9 644.6,435.1 635.4,393.8 615.3,395.3 611.9,404.3 	"/>
	<polygon class="st1" points="406,411.3 386.4,443 422.2,435.6 426.6,427 415.1,411.3 	"/>
	<polygon class="st1" points="580.5,428.6 582.9,436 614.6,451.1 614.7,450.9 611.9,404.3 	"/>
	<polygon class="st1" points="349.4,424.2 344.3,434 354.9,452.8 370.4,456.2 386.1,443.3 386.2,443.2 370.9,417.2 	"/>
	<polygon class="st1" points="298.9,426.2 279.4,414.6 278.2,414.7 261.4,433.6 262.5,440.9 271.1,450.8 295.4,446.7 	"/>
	<polygon class="st1" points="553.1,447.9 572.8,452.3 582.9,436 580.5,428.6 579.1,427.7 552.5,429.9 	"/>
	<polygon class="st1" points="543.1,419.3 528,432 534.8,452.4 544.7,456.7 553.1,447.9 552.5,429.9 	"/>
	<polygon class="st1" points="315.2,424.5 298.9,426.2 295.4,446.7 308.5,461.2 317.2,461.6 323.7,435 	"/>
	<polygon class="st1" points="452,434.6 435.1,426.2 426.6,427 422.2,435.6 427.4,461.9 458.2,449.1 458.3,445 	"/>
	<polygon class="st1" points="488.1,425.5 458.3,445 458.2,449.1 472.3,468.8 486.5,466.2 490.4,426.4 	"/>
	<polygon class="st1" points="261.4,433.6 246.3,427.4 224.6,439.9 229,461.9 235.5,466.2 262.5,440.9 	"/>
	<polygon class="st1" points="509.9,433.2 510.9,459.3 534.8,452.4 528,432 	"/>
	<polygon class="st1" points="509.9,433.2 501.9,426.1 490.4,426.4 486.5,466.2 505,470.2 510.9,459.3 	"/>
	<polygon class="st1" points="386.4,443 386.2,443.2 386.1,443.3 406.7,464.5 425.3,465.8 427.4,461.9 422.2,435.6 	"/>
	<polygon class="st1" points="344.3,434 323.7,435 317.2,461.6 317.2,461.6 340.1,463.8 354.9,452.8 	"/>
	<polygon class="st1" points="224.6,439.9 209.4,431.7 184.1,437.9 187.6,450.8 190,468.3 229,461.9 	"/>
	<polygon class="st1" points="572.8,452.3 577.2,465.8 614.2,483.8 614.6,451.1 582.9,436 	"/>
	<polygon class="st1" points="614.7,450.9 614.6,451.1 614.2,483.8 614.3,484.1 650.4,478.1 663,466.1 672.5,447.3 644.6,435.1 	"/>
	<polygon class="st1" points="271.1,450.8 275,471.3 285.4,477.2 308.5,461.2 295.4,446.7 	"/>
	<polygon class="st1" points="553.1,447.9 544.7,456.7 546.1,471.9 553.3,479.2 577.2,465.8 572.8,452.3 	"/>
	<polygon class="st1" points="275,471.3 271.1,450.8 262.5,440.9 235.5,466.2 237.8,472.6 259.2,479.4 	"/>
	<polygon class="st1" points="544.7,456.7 534.8,452.4 510.9,459.3 505,470.2 511.3,480.7 546.1,471.9 	"/>
	<polygon class="st1" points="458.2,449.1 427.4,461.9 425.3,465.8 438.1,503.8 454.2,505.6 472.3,468.8 	"/>
	<polygon class="st1" points="370.4,456.2 372.6,480.2 384.6,498.5 406.7,464.5 386.1,443.3 	"/>
	<polygon class="st1" points="354.9,452.8 340.1,463.8 345,483.3 372.6,480.2 370.4,456.2 	"/>
	<polygon class="st1" points="340.1,463.8 317.2,461.6 322.8,516 323.5,516 345,483.3 	"/>
	<polygon class="st1" points="204.6,500.4 223.9,505.6 237.8,472.6 235.5,466.2 229,461.9 190,468.3 192.7,487.2 	"/>
	<polygon class="st1" points="317.2,461.6 308.5,461.2 285.4,477.2 296.8,516.1 322.8,516 	"/>
	<polygon class="st1" points="406.7,464.5 384.6,498.5 386.6,508.6 400,504.6 418.3,504.2 438.1,503.8 425.3,465.8 	"/>
	<polygon class="st1" points="577.2,465.8 553.3,479.2 555.5,495.8 576.2,512.9 579.9,506.2 592.5,496.8 613.7,484.2 614.3,484.1 
		614.2,483.8 	"/>
	<polygon class="st1" points="511.3,480.7 512.3,510.8 555.5,495.8 553.3,479.2 546.1,471.9 	"/>
	<polygon class="st1" points="511.3,480.7 505,470.2 486.5,466.2 472.3,468.8 454.2,505.6 473.6,509.5 480.2,512.6 505.7,524.6 
		512.3,510.8 	"/>
	<polygon class="st1" points="275,471.3 259.2,479.4 259.2,515 263.9,516.2 296.8,516.1 285.4,477.2 	"/>
	<polygon class="st1" points="237.8,472.6 223.9,505.6 259.2,515 259.2,479.4 	"/>
	<polygon class="st1" points="372.6,480.2 345,483.3 323.5,516 362.1,515.9 386.6,508.6 384.6,498.5 	"/>
	<polygon class="st1" points="512.3,510.8 505.7,524.6 536.2,539.1 552.8,538.3 566.2,530.1 576.2,512.9 555.5,495.8 	"/>
</g>
<g id="sites">
	<circle class="st2" cx="276.8" cy="185" r="1.5"/>
	<circle class="st2" cx="458.5" cy="187.5" r="1.5"/>
	<circle class="st2" cx="226.2" cy="192.4" r="1.5"/>
	<circle class="st2" cx="372.2" cy="201.4" r="1.5"/>
	<circle class="st2" cx="185.2" cy="202.2" r="1.5"/>
	<circle class="st2" cx="282.1" cy="207" r="1.5"/>
	<circle class="st2" cx="498.6" cy="208" r="1.5"/>
	<circle class="st2" cx="321.1" cy="210.6" r="1.5"/>
	<circle class="st2" cx="403" cy="212.3" r="1.5"/>
	<circle class="st2" cx="362.6" cy="216.5" r="1.5"/>
	<circle class="st2" cx="435.9" cy="223.3" r="1.5"/>
	<circle class="st2" cx="301.3" cy="224.5" r="1.5"/>
	<circle class="st2" cx="275.7" cy="224.9" r="1.5"/>
	<circle class="st2" cx="339" cy="226.4" r="1.5"/>
	<circle class="st2" cx="225.1" cy="233.6" r="1.5"/>
	<circle class="st2" cx="247.5" cy="233.7" r="1.5"/>
	<circle class="st2" cx="453.2" cy="240.5" r="1.5"/>
	<circle class="st2" cx="476.2" cy="242.3" r="1.5"/>
	<circle class="st2" cx="346.7" cy="243.3" r="1.5"/>
	<circle class="st2" cx="384.9" cy="244" r="1.5"/>
	<circle class="st2" cx="509.9" cy="244.2" r="1.5"/>
	<circle class="st2" cx="180.6" cy="246.3" r="1.5"/>
	<circle class="st2" cx="143.1" cy="246.3" r="1.5"/>
	<circle class="st2" cx="283.1" cy="249.8" r="1.5"/>
	<circle class="st2" cx="561.6" cy="257.2" r="1.5"/>
	<circle class="st2" cx="313.3" cy="257.8" r="1.5"/>
	<circle class="st2" cx="415" cy="258.7" r="1.5"/>
	<circle class="st2" cx="227.2" cy="261.7" r="1.5"/>
	<circle class="st2" cx="200.3" cy="263.4" r="1.5"/>
	<circle class="st2" cx="276.2" cy="265.3" r="1.5"/>
	<circle class="st2" cx="331.1" cy="265.6" r="1.5"/>
	<circle class="st2" cx="352.9" cy="266.3" r="1.5"/>
	<circle class="st2" cx="171.1" cy="266.4" r="1.5"/>
	<circle class="st2" cx="519.3" cy="266.7" r="1.5"/>
	<circle class="st2" cx="439.4" cy="268.3" r="1.5"/>
	<circle class="st2" cx="540" cy="277.8" r="1.5"/>
	<circle class="st2" cx="459.1" cy="281.1" r="1.5"/>
	<circle class="st2" cx="382.6" cy="281.2" r="1.5"/>
	<circle class="st2" cx="316.6" cy="281.7" r="1.5"/>
	<circle class="st2" cx="226.7" cy="283.2" r="1.5"/>
	<circle class="st2" cx="490.2" cy="283.6" r="1.5"/>
	<circle class="st2" cx="261.1" cy="285.8" r="1.5"/>
	<circle class="st2" cx="205.1" cy="287" r="1.5"/>
	<circle class="st2" cx="561.1" cy="287.4" r="1.5"/>
	<circle class="st2" cx="292.9" cy="287.6" r="1.5"/>
	<circle class="st2" cx="354.6" cy="290.1" r="1.5"/>
	<circle class="st2" cx="537.4" cy="294.6" r="1.5"/>
	<circle class="st2" cx="241.4" cy="296.1" r="1.5"/>
	<circle class="st2" cx="143.8" cy="297.7" r="1.5"/>
	<circle class="st2" cx="498" cy="299.9" r="1.5"/>
	<circle class="st2" cx="261.5" cy="304" r="1.5"/>
	<circle class="st2" cx="316.9" cy="304.4" r="1.5"/>
	<circle class="st2" cx="514.2" cy="307.8" r="1.5"/>
	<circle class="st2" cx="191" cy="310.5" r="1.5"/>
	<circle class="st2" cx="429.2" cy="311.2" r="1.5"/>
	<circle class="st2" cx="340" cy="312.1" r="1.5"/>
	<circle class="st2" cx="372.7" cy="312.8" r="1.5"/>
	<circle class="st2" cx="235.7" cy="314.4" r="1.5"/>
	<circle class="st2" cx="264.1" cy="317.2" r="1.5"/>
	<circle class="st2" cx="607.3" cy="317.3" r="1.5"/>
	<circle class="st2" cx="300.1" cy="321.7" r="1.5"/>
	<circle class="st2" cx="350.6" cy="323" r="1.5"/>
	<circle class="st2" cx="579.8" cy="324.5" r="1.5"/>
	<circle class="st2" cx="467.5" cy="324.6" r="1.5"/>
	<circle class="st2" cx="279.8" cy="325.2" r="1.5"/>
	<circle class="st2" cx="217.8" cy="327.9" r="1.5"/>
	<circle class="st2" cx="531.6" cy="330.5" r="1.5"/>
	<circle class="st2" cx="399.9" cy="331.3" r="1.5"/>
	<circle class="st2" cx="626.3" cy="333.1" r="1.5"/>
	<circle class="st2" cx="328.3" cy="333.7" r="1.5"/>
	<circle class="st2" cx="355.6" cy="338.9" r="1.5"/>
	<circle class="st2" cx="246.5" cy="339.8" r="1.5"/>
	<circle class="st2" cx="445.6" cy="340.3" r="1.5"/>
	<circle class="st2" cx="465.7" cy="343.1" r="1.5"/>
	<circle class="st2" cx="201.4" cy="345.3" r="1.5"/>
	<circle class="st2" cx="172.4" cy="346.2" r="1.5"/>
	<circle class="st2" cx="555.4" cy="348.2" r="1.5"/>
	<circle class="st2" cx="373.2" cy="350.4" r="1.5"/>
	<circle class="st2" cx="289.3" cy="352.9" r="1.5"/>
	<circle class="st2" cx="506.7" cy="354.8" r="1.5"/>
	<circle class="st2" cx="309.7" cy="355" r="1.5"/>
	<circle class="st2" cx="274.9" cy="361.6" r="1.5"/>
	<circle class="st2" cx="623.3" cy="361.9" r="1.5"/>
	<circle class="st2" cx="413.6" cy="362.7" r="1.5"/>
	<circle class="st2" cx="245.6" cy="362.9" r="1.5"/>
	<circle class="st2" cx="392.8" cy="364.2" r="1.5"/>
	<circle class="st2" cx="338.5" cy="364.9" r="1.5"/>
	<circle class="st2" cx="438.3" cy="369.8" r="1.5"/>
	<circle class="st2" cx="521.9" cy="371.3" r="1.5"/>
	<circle class="st2" cx="584.2" cy="373.1" r="1.5"/>
	<circle class="st2" cx="360.5" cy="374.1" r="1.5"/>
	<circle class="st2" cx="212.3" cy="374.3" r="1.5"/>
	<circle class="st2" cx="255.6" cy="375.9" r="1.5"/>
	<circle class="st2" cx="462.5" cy="384.1" r="1.5"/>
	<circle class="st2" cx="232.2" cy="385.7" r="1.5"/>
	<circle class="st2" cx="320.7" cy="387.5" r="1.5"/>
	<circle class="st2" cx="508.7" cy="387.8" r="1.5"/>
	<circle class="st2" cx="340.4" cy="390.5" r="1.5"/>
	<circle class="st2" cx="201.2" cy="390.6" r="1.5"/>
	<circle class="st2" cx="285.1" cy="390.7" r="1.5"/>
	<circle class="st2" cx="407.8" cy="394.4" r="1.5"/>
	<circle class="st2" cx="463.4" cy="395" r="1.5"/>
	<circle class="st2" cx="214.9" cy="397.6" r="1.5"/>
	<circle class="st2" cx="521.9" cy="403" r="1.5"/>
	<circle class="st2" cx="495.7" cy="405.8" r="1.5"/>
	<circle class="st2" cx="353.5" cy="408.8" r="1.5"/>
	<circle class="st2" cx="230.8" cy="409" r="1.5"/>
	<circle class="st2" cx="433.4" cy="409.1" r="1.5"/>
	<circle class="st2" cx="303.3" cy="409.2" r="1.5"/>
	<circle class="st2" cx="253.8" cy="409.5" r="1.5"/>
	<circle class="st2" cx="584.8" cy="411" r="1.5"/>
	<circle class="st2" cx="204.2" cy="413.3" r="1.5"/>
	<circle class="st2" cx="449.7" cy="417.1" r="1.5"/>
	<circle class="st2" cx="390.2" cy="417.4" r="1.5"/>
	<circle class="st2" cx="564.4" cy="418.2" r="1.5"/>
	<circle class="st2" cx="521.9" cy="419.2" r="1.5"/>
	<circle class="st2" cx="334" cy="419.9" r="1.5"/>
	<circle class="st2" cx="656.1" cy="420.7" r="1.5"/>
	<circle class="st2" cx="227.2" cy="424.6" r="1.5"/>
	<circle class="st2" cx="467" cy="425.2" r="1.5"/>
	<circle class="st2" cx="628.2" cy="427" r="1.5"/>
	<circle class="st2" cx="407.6" cy="428.2" r="1.5"/>
	<circle class="st2" cx="598.6" cy="428.8" r="1.5"/>
	<circle class="st2" cx="361.7" cy="434.2" r="1.5"/>
	<circle class="st2" cx="286.2" cy="438.2" r="1.5"/>
	<circle class="st2" cx="566.1" cy="439.3" r="1.5"/>
	<circle class="st2" cx="539.5" cy="440.2" r="1.5"/>
	<circle class="st2" cx="306.8" cy="441.9" r="1.5"/>
	<circle class="st2" cx="436.7" cy="443.2" r="1.5"/>
	<circle class="st2" cx="480" cy="444.9" r="1.5"/>
	<circle class="st2" cx="239.1" cy="445.2" r="1.5"/>
	<circle class="st2" cx="523.7" cy="445.5" r="1.5"/>
	<circle class="st2" cx="496.9" cy="446.6" r="1.5"/>
	<circle class="st2" cx="411.7" cy="448.2" r="1.5"/>
	<circle class="st2" cx="335.5" cy="449" r="1.5"/>
	<circle class="st2" cx="213.3" cy="450.4" r="1.5"/>
	<circle class="st2" cx="587.2" cy="452.6" r="1.5"/>
	<circle class="st2" cx="642" cy="453.2" r="1.5"/>
	<circle class="st2" cx="289.4" cy="457.6" r="1.5"/>
	<circle class="st2" cx="561.3" cy="461" r="1.5"/>
	<circle class="st2" cx="256.6" cy="463.9" r="1.5"/>
	<circle class="st2" cx="529.2" cy="464" r="1.5"/>
	<circle class="st2" cx="447.3" cy="468.3" r="1.5"/>
	<circle class="st2" cx="390.3" cy="469" r="1.5"/>
	<circle class="st2" cx="353.1" cy="472.3" r="1.5"/>
	<circle class="st2" cx="332.8" cy="477.4" r="1.5"/>
	<circle class="st2" cx="217.8" cy="477.7" r="1.5"/>
	<circle class="st2" cx="305.2" cy="480.2" r="1.5"/>
	<circle class="st2" cx="409.2" cy="481.2" r="1.5"/>
	<circle class="st2" cx="573" cy="481.7" r="1.5"/>
	<circle class="st2" cx="534.9" cy="486.7" r="1.5"/>
	<circle class="st2" cx="488" cy="488.4" r="1.5"/>
	<circle class="st2" cx="270.5" cy="490.5" r="1.5"/>
	<circle class="st2" cx="248" cy="490.5" r="1.5"/>
	<circle class="st2" cx="355.3" cy="492.2" r="1.5"/>
	<circle class="st2" cx="545" cy="515.5" r="1.5"/>
</g>
<g id="numbers_1_">
	<text transform="matrix(1 0 0 1 219.2216 196.7377)" class="st3 st4">1</text>
	<text transform="matrix(1 0 0 1 158.3569 263.8041)" class="st3 st4">29</text>
	<text transform="matrix(1 0 0 1 130.956 303.1503)" class="st3 st4">100</text>
	<text transform="matrix(1 0 0 1 129.3969 251.101)" class="st3 st4">101</text>
	<text transform="matrix(1 0 0 1 179.9297 310.4882)" class="st3 st4">52</text>
	<text transform="matrix(1 0 0 1 219.9863 429.4111)" class="st3 st4">114</text>
	<text transform="matrix(1 0 0 1 228.0704 410.5117)" class="st3 st4">66</text>
	<text transform="matrix(1 0 0 1 226.7861 389.8574)" class="st3 st4">112</text>
	<text transform="matrix(1 0 0 1 191.8003 419.3604)" class="st3 st4">115</text>
	<text transform="matrix(1 0 0 1 210.2649 398.818)" class="st3 st4">113</text>
	<text transform="matrix(1 0 0 1 190.3442 395.3145)" class="st3 st4">116</text>
	<text transform="matrix(1 0 0 1 206.8487 373.473)" class="st3 st4">69</text>
	<text transform="matrix(1 0 0 1 233.4414 362.7354)" class="st3 st4">13</text>
	<text transform="matrix(1 0 0 1 240.7627 344.3613)" class="st3 st4">117</text>
	<text transform="matrix(1 0 0 1 190.0976 347.1729)" class="st3 st4">28</text>
	<text transform="matrix(1 0 0 1 227.6303 449.9678)" class="st3 st4">88</text>
	<text transform="matrix(1 0 0 1 275.7002 435.5488)" class="st3 st4">85</text>
	<text transform="matrix(1 0 0 1 278.6484 463.2382)" class="st3 st4">87</text>
	<text transform="matrix(1 0 0 1 263.1399 489.6636)" class="st3 st4">108</text>
	<text transform="matrix(1 0 0 1 352.6196 438.8212)" class="st3 st4">39/81</text>
	<text transform="matrix(1 0 0 1 346.2827 494.6464)" class="st3 st4">84</text>
	<text transform="matrix(1 0 0 1 348.0522 467.4805)" class="st3 st4">83</text>
	<text transform="matrix(1 0 0 1 324.1235 482.6279)" class="st3 st4">109</text>
	<text transform="matrix(1 0 0 1 324.6992 451.2236)" class="st3 st4">82</text>
	<text transform="matrix(1 0 0 1 301.8723 439.5082)" class="st3 st4">151/155</text>
	<text transform="matrix(1 0 0 1 299.2793 486.6699)" class="st3 st4">86</text>
	<text transform="matrix(1 0 0 1 238.366 490.5815)" class="st3 st4">107</text>
	<text transform="matrix(1 0 0 1 246.7852 468.9734)" class="st3 st4">106</text>
	<text transform="matrix(1 0 0 1 203.4004 478.1288)" class="st3 st4">110</text>
	<text transform="matrix(1 0 0 1 199.7133 454.6122)" class="st3 st4">111</text>
	<text transform="matrix(1 0 0 1 247.9282 413.5566)" class="st3 st4">92</text>
	<text transform="matrix(1 0 0 1 292.8828 408.7949)" class="st3 st4">91</text>
	<text transform="matrix(1 0 0 1 326.9389 367.4423)" class="st3 st4">51</text>
	<text transform="matrix(1 0 0 1 358.0649 378.3046)" class="st3 st4">5</text>
	<text transform="matrix(1 0 0 1 379.2466 420.6747)" class="st3 st4">62</text>
	<text transform="matrix(1 0 0 1 353.9428 403.3627)" class="st3 st4">61</text>
	<text transform="matrix(1 0 0 1 322.6499 417.2822)" class="st3 st4">31</text>
	<text transform="matrix(1 0 0 1 338.3109 395.2769)" class="st3 st4">152</text>
	<text transform="matrix(1 0 0 1 309.7231 391.5507)" class="st3 st4">93</text>
	<text transform="matrix(1 0 0 1 275.5171 395.3145)" class="st3 st4">27</text>
	<text transform="matrix(1 0 0 1 277.3229 333.1499)" class="st3 st4">161</text>
	<text transform="matrix(1 0 0 1 317.6303 333.3671)" class="st3 st4">94</text>
	<text transform="matrix(1 0 0 1 368.4839 355.2626)" class="st3 st4">19</text>
	<text transform="matrix(1 0 0 1 368.8706 318.0214)" class="st3 st4">60</text>
	<text transform="matrix(1 0 0 1 346.5298 344.9268)" class="st3 st4">58</text>
	<text transform="matrix(1 0 0 1 382.8833 369.5576)" class="st3 st4">128</text>
	<text transform="matrix(1 0 0 1 390.6147 336.2891)" class="st3 st4">35</text>
	<text transform="matrix(1 0 0 1 348.9058 320.6448)" class="st3 st4">153</text>
	<text transform="matrix(1 0 0 1 335.0091 311.9419)" class="st3 st4">30</text>
	<text transform="matrix(1 0 0 1 312.8623 286.1171)" class="st3 st4">41</text>
	<text transform="matrix(1 0 0 1 329.7597 268.1807)" class="st3 st4">42</text>
	<text transform="matrix(1 0 0 1 347.9721 261.5742)" class="st3 st4">38</text>
	<text transform="matrix(1 0 0 1 307.9609 263.8041)" class="st3 st4">46</text>
	<text transform="matrix(1 0 0 1 274.6504 266.9907)" class="st3 st4">20</text>
	<text transform="matrix(1 0 0 1 338.5979 247.174)" class="st3 st4">121</text>
	<text transform="matrix(1 0 0 1 401.7163 261.9321)" class="st3 st4">104</text>
	<text transform="matrix(1 0 0 1 433.2036 274.3535)" class="st3 st4">3</text>
	<text transform="matrix(1 0 0 1 421.9467 308.8975)" class="st3 st4">59</text>
	<text transform="matrix(1 0 0 1 381.5005 247.9203)" class="st3 st4">65</text>
	<text transform="matrix(1 0 0 1 379.0796 286.1171)" class="st3 st4">11</text>
	<text transform="matrix(1 0 0 1 358.688 221.2109)" class="st3 st4">122</text>
	<text transform="matrix(1 0 0 1 432.2719 219.1425)" class="st3 st4">4</text>
	<text transform="matrix(1 0 0 1 441.0648 243.9027)" class="st3 st4">103</text>
	<text transform="matrix(1 0 0 1 457.2866 284.918)" class="st3 st4">63</text>
	<text transform="matrix(1 0 0 1 497.6069 209.8726)" class="st3 st4">74</text>
	<text transform="matrix(1 0 0 1 509.7612 245.1807)" class="st3 st4">14</text>
	<text transform="matrix(1 0 0 1 511.0698 270.772)" class="st3 st4">124</text>
	<text transform="matrix(1 0 0 1 469.756 250.5846)" class="st3 st4">17</text>
	<text transform="matrix(1 0 0 1 479.1176 287.2841)" class="st3 st4">36/75</text>
	<text transform="matrix(1 0 0 1 465.9184 327.4257)" class="st3 st4">6</text>
	<text transform="matrix(1 0 0 1 485.6303 302.1122)" class="st3 st4">50</text>
	<text transform="matrix(1 0 0 1 529.1567 298.8378)" class="st3 st4">134</text>
	<text transform="matrix(1 0 0 1 535.0923 273.6011)" class="st3 st4">26</text>
	<text transform="matrix(1 0 0 1 572.5259 319.4579)" class="st3 st4">140</text>
	<text transform="matrix(1 0 0 1 598.4741 312.5605)" class="st3 st4">141</text>
	<text transform="matrix(1 0 0 1 557.98 283.5181)" class="st3 st4">137</text>
	<text transform="matrix(1 0 0 1 557.8345 261.9321)" class="st3 st4">165</text>
	<text transform="matrix(1 0 0 1 521.3667 334.8915)" class="st3 st4">135/9</text>
	<text transform="matrix(1 0 0 1 501.6538 392.1826)" class="st3 st4">133</text>
	<text transform="matrix(1 0 0 1 493.9673 409.8604)" class="st3 st4">8</text>
	<text transform="matrix(1 0 0 1 490.6626 453.4678)" class="st3 st4">164</text>
	<text transform="matrix(1 0 0 1 512.3618 446.8701)" class="st3 st4">138</text>
	<text transform="matrix(1 0 0 1 534.7678 435.0558)" class="st3 st4">166/167</text>
	<text transform="matrix(1 0 0 1 550.7417 460.2969)" class="st3 st4">143</text>
	<text transform="matrix(1 0 0 1 566.2017 486.6699)" class="st3 st4">146</text>
	<text transform="matrix(1 0 0 1 536.4731 520.623)" class="st3 st4">145</text>
	<text transform="matrix(1 0 0 1 525.6948 492.3389)" class="st3 st4">163</text>
	<text transform="matrix(1 0 0 1 524.9995 469.1641)" class="st3 st4">144</text>
	<text transform="matrix(1 0 0 1 480.3559 492.7548)" class="st3 st4">125</text>
	<text transform="matrix(1 0 0 1 562.896 443.6855)" class="st3 st4">162</text>
	<text transform="matrix(1 0 0 1 551.0122 417.5497)" class="st3 st4">131</text>
	<text transform="matrix(1 0 0 1 578.9185 415.7656)" class="st3 st4">157</text>
	<text transform="matrix(1 0 0 1 593.4185 433.1328)" class="st3 st4">142</text>
	<text transform="matrix(1 0 0 1 578.4038 455.2441)" class="st3 st4">147</text>
	<text transform="matrix(1 0 0 1 637.9985 458.2285)" class="st3 st4">158</text>
	<text transform="matrix(1 0 0 1 621.4175 432.6309)" class="st3 st4">148</text>
	<text transform="matrix(1 0 0 1 623.5835 360.1367)" class="st3 st4">129</text>
	<text transform="matrix(1 0 0 1 578.4038 367.4423)" class="st3 st4">132</text>
	<text transform="matrix(1 0 0 1 624.146 337.037)" class="st3 st4">130</text>
	<text transform="matrix(1 0 0 1 651.687 425.8613)" class="st3 st4">149</text>
	<text transform="matrix(1 0 0 1 467.7876 449.9697)" class="st3 st4">126</text>
	<text transform="matrix(1 0 0 1 460.4456 431.2028)" class="st3 st4">97</text>
	<text transform="matrix(1 0 0 1 442.7161 423.3972)" class="st3 st4">33</text>
	<text transform="matrix(1 0 0 1 421.2182 408.7949)" class="st3 st4">127</text>
	<text transform="matrix(1 0 0 1 460.7934 398.9716)" class="st3 st4">48</text>
	<text transform="matrix(1 0 0 1 436.1059 371.037)" class="st3 st4">18</text>
	<text transform="matrix(1 0 0 1 428.5258 341.5186)" class="st3 st4">16/76</text>
	<text transform="matrix(1 0 0 1 407.7094 367.4423)" class="st3 st4">7</text>
	<text transform="matrix(1 0 0 1 463.0024 346.2764)" class="st3 st4">49</text>
	<text transform="matrix(1 0 0 1 460.7934 385.1094)" class="st3 st4">47</text>
	<text transform="matrix(1 0 0 1 405.9751 395.3145)" class="st3 st4">24</text>
	<text transform="matrix(1 0 0 1 403.0937 433.0673)" class="st3 st4">78</text>
	<text transform="matrix(1 0 0 1 404.0112 486.6699)" class="st3 st4">90</text>
	<text transform="matrix(1 0 0 1 385.3647 464.0214)" class="st3 st4">99</text>
	<text transform="matrix(1 0 0 1 430.833 449.3879)" class="st3 st4">79/80</text>
	<text transform="matrix(1 0 0 1 402.3612 455.2509)" class="st3 st4">32/89</text>
	<text transform="matrix(1 0 0 1 441.0737 473.8163)" class="st3 st4">98</text>
	<text transform="matrix(1 0 0 1 507.1626 423.9462)" class="st3 st4">150/156</text>
	<text transform="matrix(1 0 0 1 521.0063 405.2432)" class="st3 st4">34</text>
	<text transform="matrix(1 0 0 1 519.9604 372.8398)" class="st3 st4">77</text>
	<text transform="matrix(1 0 0 1 504.6928 349.2139)" class="st3 st4">25</text>
	<text transform="matrix(1 0 0 1 546.8853 353.3456)" class="st3 st4">139</text>
	<text transform="matrix(1 0 0 1 507.379 315.1389)" class="st3 st4">96/136</text>
	<text transform="matrix(1 0 0 1 392.2436 213.1641)" class="st3 st4">95</text>
	<text transform="matrix(1 0 0 1 457.7104 187.3472)" class="st3 st4">154</text>
	<text transform="matrix(1 0 0 1 363.9046 199.7664)" class="st3 st4">64</text>
	<text transform="matrix(1 0 0 1 330.2754 230.5313)" class="st3 st4">15</text>
	<text transform="matrix(1 0 0 1 353.9936 291.8408)" class="st3 st4">40</text>
	<text transform="matrix(1 0 0 1 285.9878 292.0488)" class="st3 st4">10</text>
	<text transform="matrix(1 0 0 1 312.2133 301.3096)" class="st3 st4">119</text>
	<text transform="matrix(1 0 0 1 298.082 328.1033)" class="st3 st4">57</text>
	<text transform="matrix(1 0 0 1 247.9282 378.2499)" class="st3 st4">67</text>
	<text transform="matrix(1 0 0 1 273.0849 365.4619)" class="st3 st4">68</text>
	<text transform="matrix(1 0 0 1 285.2329 356.5634)" class="st3 st4">160</text>
	<text transform="matrix(1 0 0 1 300.4585 360.4042)" class="st3 st4">12</text>
	<text transform="matrix(1 0 0 1 205.1245 327.4257)" class="st3 st4">56</text>
	<text transform="matrix(1 0 0 1 159.9204 346.3311)" class="st3 st4">70</text>
	<text transform="matrix(1 0 0 1 194.2031 288.002)" class="st3 st4">73</text>
	<text transform="matrix(1 0 0 1 254.2334 324.1533)" class="st3 st4">37</text>
	<text transform="matrix(1 0 0 1 261.8462 303.6855)" class="st3 st4">159</text>
	<text transform="matrix(1 0 0 1 255.4099 283.3462)" class="st3 st4">120</text>
	<text transform="matrix(1 0 0 1 231.9268 314.822)" class="st3 st4">118</text>
	<text transform="matrix(1 0 0 1 238.5539 293.2371)" class="st3 st4">102</text>
	<text transform="matrix(1 0 0 1 224.5883 286.1171)" class="st3 st4">2</text>
	<text transform="matrix(1 0 0 1 189.4028 264.3759)" class="st3 st4">71</text>
	<text transform="matrix(1 0 0 1 224.9677 265.4042)" class="st3 st4">72</text>
	<text transform="matrix(1 0 0 1 166.5566 246.1606)" class="st3 st4">53</text>
	<text transform="matrix(1 0 0 1 174.8779 202.2769)" class="st3 st4">55</text>
	<text transform="matrix(1 0 0 1 295.7804 232.5422)" class="st3 st4">23/105</text>
	<text transform="matrix(1 0 0 1 273.3076 246.9886)" class="st3 st4">21</text>
	<text transform="matrix(1 0 0 1 265.3686 227.5278)" class="st3 st4">43</text>
	<text transform="matrix(1 0 0 1 270.4033 208.7451)" class="st3 st4">44</text>
	<text transform="matrix(1 0 0 1 318.3691 213.1641)" class="st3 st4">45</text>
	<text transform="matrix(1 0 0 1 261.8462 187.3472)" class="st3 st4">123</text>
	<text transform="matrix(1 0 0 1 238.2583 239.6302)" class="st3 st4">22</text>
	<text transform="matrix(1 0 0 1 211.8257 234.1127)" class="st3 st4">54</text>
</g>
</svg>
