<?xml version="1.0" encoding="utf-8"?>
<!-- Generator: Adobe Illustrator 24.1.2, SVG Export Plug-In . SVG Version: 6.00 Build 0)  -->
<svg version="1.1" id="Layer_1" xmlns="http://www.w3.org/2000/svg" xmlns:xlink="http://www.w3.org/1999/xlink" x="0px" y="0px"
	 viewBox="0 0 803.2 611.8" style="enable-background:new 0 0 803.2 611.8;" xml:space="preserve">
<style type="text/css">
	.st0{fill:none;stroke:#000000;stroke-width:2;stroke-miterlimit:10;}
	.st1{fill:#57CBF5;}
	.st2{opacity:0.54;fill:#FFFFFF;stroke:#000000;stroke-miterlimit:10;enable-background:new    ;}
	.st3{font-family:'ArialMT';}
	.st4{font-size:4.4756px;}
</style>
<g id="ruler">
	<line id="ruler_1_" class="st0" x1="189.4" y1="511.8" x2="124.9" y2="511.8"/>
</g>
<g id="tiles">
	<polygon class="st1" points="551.5,492.7 513.4,523.3 549.7,535.5 565.7,535.5 581.3,528.8 600.7,510.7 592.1,500.6 	"/>
	<polygon class="st1" points="476.2,461.5 442.7,463.3 425.3,493.4 500.9,519 498.4,498.1 	"/>
	<polygon class="st1" points="551.5,449.6 534.6,448.7 498.4,498.1 500.9,519 513.4,523.3 551.5,492.7 	"/>
	<polygon class="st1" points="551.7,449.5 551.5,449.6 551.5,492.7 592.1,500.6 587.5,463.6 559.5,449.1 	"/>
	<polygon class="st1" points="587.5,463.6 592.1,500.6 600.7,510.7 613.6,498.7 627.6,485.5 633.4,468.4 636.8,450 614.7,446.5 	"/>
	<polygon class="st1" points="429.3,438.9 424.5,437.8 388.6,450.9 385.9,480 425.3,493.4 442.7,463.3 	"/>
	<polygon class="st1" points="478.1,456.6 476.2,461.5 498.4,498.1 534.6,448.7 518.5,436.1 	"/>
	<polygon class="st1" points="378.3,437 349.3,437 331.5,461.1 330.9,479.4 385.9,480 388.6,450.9 	"/>
	<polygon class="st1" points="298.8,425.1 297.4,425 280,478.7 330.9,479.4 331.5,461.1 	"/>
	<polygon class="st1" points="286.1,417.8 266.8,430.2 252.8,468.2 280,478.7 297.4,425 	"/>
	<polygon class="st1" points="587.5,463.6 614.7,446.5 591.9,414.4 559.5,449.1 	"/>
	<polygon class="st1" points="476,441.9 450.2,417.3 447.3,417.4 429.3,438.9 442.7,463.3 476.2,461.5 478.1,456.6 	"/>
	<polygon class="st1" points="232.3,417.9 222.7,424.7 212.5,452.7 252.8,468.2 266.8,430.2 	"/>
	<polygon class="st1" points="476,441.9 478.1,456.6 518.5,436.1 514.5,422.7 490.5,409.8 	"/>
	<polygon class="st1" points="331.9,405.7 298.8,425.1 331.5,461.1 349.3,437 338.2,407.1 	"/>
	<polygon class="st1" points="383.6,413.1 378.3,437 388.6,450.9 424.5,437.8 404.1,403.8 	"/>
	<polygon class="st1" points="483,396 450.2,417.3 476,441.9 490.5,409.8 	"/>
	<polygon class="st1" points="551.7,413.4 532.5,399 514.5,422.7 518.5,436.1 534.6,448.7 551.5,449.6 551.7,449.5 	"/>
	<polygon class="st1" points="551.7,413.4 551.7,449.5 559.5,449.1 591.9,414.4 591.9,413.6 578.7,397.8 	"/>
	<polygon class="st1" points="591.9,413.6 591.9,414.4 614.7,446.5 636.8,450 636.9,449.5 653.3,390.9 643.7,387.6 	"/>
	<polygon class="st1" points="375.5,406.2 339.6,406.2 338.2,407.1 349.3,437 378.3,437 383.6,413.1 	"/>
	<polygon class="st1" points="192.4,386.4 190.2,385.8 158.5,407 212.3,452.6 212.5,452.7 222.7,424.7 	"/>
	<polygon class="st1" points="255.1,391 250.6,390.3 245.2,392.5 232.3,417.9 266.8,430.2 286.1,417.8 285.4,415.7 	"/>
	<polygon class="st1" points="439.3,403.1 414,398.2 405.9,400.4 404.1,403.8 424.5,437.8 429.3,438.9 447.3,417.4 	"/>
	<polygon class="st1" points="514.3,378.6 503.7,375.9 483,395 483,396 490.5,409.8 514.5,422.7 532.5,399 532.5,398.5 	"/>
	<polygon class="st1" points="319.5,382.9 302.6,375.3 298.6,376.4 285.4,415.7 286.1,417.8 297.4,425 298.8,425.1 331.9,405.7 	"/>
	<polygon class="st1" points="532.5,398.5 532.5,399 551.7,413.4 578.7,397.8 578.3,395.8 553.1,380.3 	"/>
	<polygon class="st1" points="220,377.2 192.4,386.4 222.7,424.7 232.3,417.9 245.2,392.5 	"/>
	<polygon class="st1" points="483,395 457.8,373.2 447,375.1 439.3,403.1 447.3,417.4 450.2,417.3 483,396 	"/>
	<polygon class="st1" points="357.1,375 339.6,406.2 375.5,406.2 370.3,372.9 	"/>
	<polygon class="st1" points="379.9,369.7 373.9,370 370.3,372.9 375.5,406.2 383.6,413.1 404.1,403.8 405.9,400.4 400.2,383.2 	"/>
	<polygon class="st1" points="434.4,369.4 414,398.2 439.3,403.1 447,375.1 	"/>
	<polygon class="st1" points="578.3,395.8 578.7,397.8 591.9,413.6 643.7,387.6 623.9,369.5 595.3,361.2 	"/>
	<polygon class="st1" points="255.1,391 285.4,415.7 298.6,376.4 283.3,368.7 	"/>
	<polygon class="st1" points="340.3,363.8 319.5,382.9 331.9,405.7 338.2,407.1 339.6,406.2 357.1,375 	"/>
	<polygon class="st1" points="428,362.5 419.7,361.5 400.2,383.2 405.9,400.4 414,398.2 434.4,369.4 	"/>
	<polygon class="st1" points="514.3,378.6 532.5,398.5 553.1,380.3 549.7,357.1 543.8,357.5 	"/>
	<polygon class="st1" points="549.7,357.1 553.1,380.3 578.3,395.8 595.3,361.2 588.5,351 553,353.6 	"/>
	<polygon class="st1" points="184.7,354 124.9,354 158.5,407 190.2,385.8 	"/>
	<polygon class="st1" points="227.2,351.3 220,377.2 245.2,392.5 250.6,390.3 250.6,349.4 	"/>
	<polygon class="st1" points="272.9,347.3 264.9,342.7 257.5,343.9 250.6,349.4 250.6,390.3 255.1,391 283.3,368.7 	"/>
	<polygon class="st1" points="391.9,357.3 379.9,369.7 400.2,383.2 419.7,361.5 412.7,355.6 	"/>
	<polygon class="st1" points="468.5,346.7 457.8,373.2 483,395 503.7,375.9 500.3,357.9 	"/>
	<polygon class="st1" points="338.1,356.3 311.7,353 302.6,375.3 319.5,382.9 340.3,363.8 	"/>
	<polygon class="st1" points="227.2,351.3 207.5,334.4 193.4,336.6 184.7,354 190.2,385.8 192.4,386.4 220,377.2 	"/>
	<polygon class="st1" points="512.9,340.1 512.5,340.1 510.2,341.4 500.3,357.9 503.7,375.9 514.3,378.6 543.8,357.5 	"/>
	<polygon class="st1" points="362.1,330.8 346,333.5 338.1,356.3 340.3,363.8 357.1,375 370.3,372.9 373.9,370 364,332.3 	"/>
	<polygon class="st1" points="307.2,338.2 304.1,336.6 272.9,347.3 283.3,368.7 298.6,376.4 302.6,375.3 311.7,353 	"/>
	<polygon class="st1" points="463.3,330.7 442.4,326.4 428,362.5 434.4,369.4 447,375.1 457.8,373.2 468.5,346.7 	"/>
	<polygon class="st1" points="390.3,333.7 364,332.3 373.9,370 379.9,369.7 391.9,357.3 	"/>
	<polygon class="st1" points="391.9,357.3 412.7,355.6 406.6,324.6 390.3,333.7 	"/>
	<polygon class="st1" points="635.4,314 623.9,369.5 643.7,387.6 653.3,390.9 663.7,354.1 661.9,312.9 661.9,312.5 	"/>
	<polygon class="st1" points="333,325 307.2,338.2 311.7,353 338.1,356.3 346,333.5 	"/>
	<polygon class="st1" points="437.2,321.7 407.8,322.8 406.6,324.6 412.7,355.6 419.7,361.5 428,362.5 442.4,326.4 	"/>
	<polygon class="st1" points="592.3,329.2 588.5,351 595.3,361.2 623.9,369.5 635.4,314 634.8,313.8 	"/>
	<polygon class="st1" points="193.4,336.6 183.7,324.9 131.7,324.9 117,341.6 124.9,354 184.7,354 	"/>
	<polygon class="st1" points="463.3,330.7 468.5,346.7 500.3,357.9 510.2,341.4 477.1,317.5 	"/>
	<polygon class="st1" points="512.9,340.1 543.8,357.5 549.7,357.1 553,353.6 546.5,321 545.1,320.7 	"/>
	<polygon class="st1" points="568.7,308.7 562.8,309 546.5,321 553,353.6 588.5,351 592.3,329.2 582.2,315.4 	"/>
	<polygon class="st1" points="257.5,343.9 237,312.7 218.3,319.2 207.5,334.4 227.2,351.3 250.6,349.4 	"/>
	<polygon class="st1" points="275.7,310.3 264.9,342.7 272.9,347.3 304.1,336.6 295,309.8 	"/>
	<polygon class="st1" points="479.8,311.4 477.1,317.5 510.2,341.4 512.5,340.1 512.5,312.9 	"/>
	<polygon class="st1" points="512.5,340.1 512.9,340.1 545.1,320.7 522,303 512.5,312.9 	"/>
	<polygon class="st1" points="329.9,313.6 307.7,297.9 295,309.8 304.1,336.6 307.2,338.2 333,325 	"/>
	<polygon class="st1" points="369.9,297.9 362.1,330.8 364,332.3 390.3,333.7 406.6,324.6 407.8,322.8 399.1,304.3 	"/>
	<polygon class="st1" points="265.8,298.8 241.5,304.7 237,312.7 257.5,343.9 264.9,342.7 275.7,310.3 	"/>
	<polygon class="st1" points="170.6,290.1 139.1,301.8 131.7,324.9 183.7,324.9 181.8,298.2 	"/>
	<polygon class="st1" points="369.2,296.7 347.1,292.8 329.9,313.6 333,325 346,333.5 362.1,330.8 369.9,297.9 	"/>
	<polygon class="st1" points="218.4,319.5 205.8,288.6 181.8,298.5 183.8,325.2 193.5,336.9 207.6,334.7 	"/>
	<polygon class="st1" points="582.2,315.4 592.3,329.2 634.8,313.8 614.8,284 611.9,283.6 602.2,287.6 	"/>
	<polygon class="st1" points="479.8,311.4 479,292.8 458,284 438.2,301.8 437.2,321.7 442.4,326.4 463.3,330.7 477.1,317.5 	"/>
	<polygon class="st1" points="421.4,285.1 410.6,285.1 399.1,304.3 407.8,322.8 437.2,321.7 438.2,301.8 	"/>
	<polygon class="st1" points="479,292.8 479.8,311.4 512.5,312.9 522,303 521.9,301.2 492.3,280.2 	"/>
	<polygon class="st1" points="521.9,301.2 522,303 545.1,320.7 546.5,321 562.8,309 540.1,274 	"/>
	<polygon class="st1" points="241.5,304.7 229.7,281.3 221.9,276.8 210.6,280.5 205.7,288.3 218.3,319.2 237,312.7 	"/>
	<polygon class="st1" points="334,275.8 308.8,285.1 307.7,297.9 329.9,313.6 347.1,292.8 	"/>
	<polygon class="st1" points="139.1,301.8 120.6,256.7 111.2,250.1 93.8,246.1 100.4,315.4 117,341.6 131.7,324.9 	"/>
	<polygon class="st1" points="582.2,315.4 602.2,287.6 576.6,280 568.7,308.7 	"/>
	<polygon class="st1" points="297,271.6 267.7,285 265.8,298.8 275.7,310.3 295,309.8 307.7,297.9 308.8,285.1 	"/>
	<polygon class="st1" points="267.7,285 258.4,272.5 229.7,281.3 241.5,304.7 265.8,298.8 	"/>
	<polygon class="st1" points="540.1,274 562.8,309 568.7,308.7 576.6,280 573,270.8 540.2,273.5 	"/>
	<polygon class="st1" points="375.9,265.9 369.2,296.7 369.9,297.9 399.1,304.3 410.6,285.1 400.2,267.4 	"/>
	<polygon class="st1" points="438.2,301.8 458,284 453.2,272.9 436.8,266 421.4,285.1 	"/>
	<polygon class="st1" points="521.9,301.2 540.1,274 540.2,273.5 536.6,267 499.3,256.2 492.3,280.2 	"/>
	<polygon class="st1" points="634.8,313.8 635.4,314 661.9,312.5 661.9,277 641.7,246.8 614.8,284 	"/>
	<polygon class="st1" points="169.6,258.7 120.6,256.7 139.1,301.8 170.6,290.1 	"/>
	<polygon class="st1" points="183.6,251.5 178.4,251.1 169.6,258.7 170.6,290.1 181.8,298.2 205.7,288.3 210.6,280.5 	"/>
	<polygon class="st1" points="369.6,256.8 338.2,264.4 334,275.8 347.1,292.8 369.2,296.7 375.9,265.9 	"/>
	<polygon class="st1" points="573,270.8 576.6,280 602.2,287.6 611.9,283.6 590.5,254.2 581.8,255.3 	"/>
	<polygon class="st1" points="458,284 479,292.8 492.3,280.2 499.3,256.2 496.6,250.4 486.5,243 473.6,242.7 453.2,272.9 	"/>
	<polygon class="st1" points="410.6,285.1 421.4,285.1 436.8,266 431.4,253.9 411.4,252.5 400.2,267.4 	"/>
	<polygon class="st1" points="258.4,251.6 249,246.8 227.1,256.7 221.9,276.8 229.7,281.3 258.4,272.5 	"/>
	<polygon class="st1" points="295.2,245.1 289.5,240.3 258.4,251.6 258.4,272.5 267.7,285 297,271.6 	"/>
	<polygon class="st1" points="308.8,285.1 334,275.8 338.2,264.4 324,241.4 295.2,245.1 297,271.6 	"/>
	<polygon class="st1" points="590.5,254.2 611.9,283.6 614.8,284 641.7,246.8 641.7,246.7 638.8,226.2 615.9,230.9 	"/>
	<polygon class="st1" points="208.8,237.4 183.6,251.5 210.6,280.5 221.9,276.8 227.1,256.7 	"/>
	<polygon class="st1" points="540.2,273.5 573,270.8 581.8,255.3 565.6,238 550,236.7 536.6,267 	"/>
	<polygon class="st1" points="436.8,266 453.2,272.9 473.6,242.7 449.6,228.9 444.9,231.4 431.4,253.9 	"/>
	<polygon class="st1" points="375.9,265.9 400.2,267.4 411.4,252.5 402.7,230.6 390.4,230 369.8,252.9 369.6,256.8 	"/>
	<polygon class="st1" points="369.6,256.8 369.8,252.9 350.6,226.1 334.3,227.7 324,241.4 338.2,264.4 	"/>
	<polygon class="st1" points="496.6,250.4 499.3,256.2 536.6,267 550,236.7 540.7,223.3 527,222.8 	"/>
	<polygon class="st1" points="249,246.8 243.1,226.6 226.3,219.7 211.7,228.7 208.8,237.4 227.1,256.7 	"/>
	<polygon class="st1" points="411.4,252.5 431.4,253.9 444.9,231.4 411.1,222.4 402.7,230.6 	"/>
	<polygon class="st1" points="178.4,251.1 168.1,216.9 158.9,211.8 111.2,250.1 120.6,256.7 169.6,258.7 	"/>
	<polygon class="st1" points="581.8,255.3 590.5,254.2 615.9,230.9 582.7,215.4 565.6,238 	"/>
	<polygon class="st1" points="249,246.8 258.4,251.6 289.5,240.3 288,231 275.1,212.5 263.8,207.9 243.1,226.6 	"/>
	<polygon class="st1" points="369.8,252.9 390.4,230 373.4,205.4 366.6,204.9 350.6,226.1 	"/>
	<polygon class="st1" points="208.8,237.4 211.7,228.7 191.6,207.1 168.1,216.9 178.4,251.1 183.6,251.5 	"/>
	<polygon class="st1" points="295.2,245.1 324,241.4 334.3,227.7 322.7,203.7 315.3,201.8 288,231 289.5,240.3 	"/>
	<polygon class="st1" points="496.6,250.4 527,222.8 507.6,198.7 498.1,196.8 491.7,200 486.5,243 	"/>
	<polygon class="st1" points="540.7,223.3 550,236.7 565.6,238 582.7,215.4 576.4,197.2 551.1,199.5 	"/>
	<polygon class="st1" points="473.6,242.7 486.5,243 491.7,200 472.8,194.4 450.6,205.8 449.6,228.9 	"/>
	<polygon class="st1" points="411.1,222.4 444.9,231.4 449.6,228.9 450.6,205.8 435,192.9 413.5,195.7 	"/>
	<polygon class="st1" points="402.7,230.6 411.1,222.4 413.5,195.7 400.1,186.1 373.4,205.4 390.4,230 	"/>
	<polygon class="st1" points="158.9,211.8 149.3,187 133.5,181.5 93.8,246.1 111.2,250.1 	"/>
	<polygon class="st1" points="226.3,219.7 226.3,194.8 212.5,185.2 199.7,188.4 191.6,207.1 211.7,228.7 	"/>
	<polygon class="st1" points="263.8,207.9 255.1,190.4 248.9,188.9 226.3,194.8 226.3,219.7 243.1,226.6 	"/>
	<polygon class="st1" points="350.6,226.1 366.6,204.9 350,183.4 346.6,183.7 322.7,203.7 334.3,227.7 	"/>
	<polygon class="st1" points="582.3,188.5 576.4,197.2 582.7,215.4 615.9,230.9 638.8,226.2 636.4,209.1 600,184.8 	"/>
	<polygon class="st1" points="288,231 315.3,201.8 303.8,187.4 295.3,186.8 275.1,212.5 	"/>
	<polygon class="st1" points="527,222.8 540.7,223.3 551.1,199.5 537.7,181.4 507.6,198.7 	"/>
	<polygon class="st1" points="111.8,155.9 92.1,178.5 85.6,211.3 93.8,246.1 133.5,181.5 	"/>
	<polygon class="st1" points="191.6,207.1 199.7,188.4 174.7,168.6 149.3,187 158.9,211.8 168.1,216.9 	"/>
	<polygon class="st1" points="255.1,190.4 263.8,207.9 275.1,212.5 295.3,186.8 285.7,177.6 263.1,181 	"/>
	<polygon class="st1" points="322.7,203.7 346.6,183.7 317.9,164.6 317.9,164.6 303.8,187.4 315.3,201.8 	"/>
	<polygon class="st1" points="366.6,204.9 373.4,205.4 400.1,186.1 396.2,163.2 390.9,155.4 358.4,167.7 350,183.4 	"/>
	<polygon class="st1" points="435,192.9 450.6,205.8 472.8,194.4 465.6,160.8 447.5,156.7 443,161.3 	"/>
	<polygon class="st1" points="537.9,174.4 537.7,181.4 551.1,199.5 576.4,197.2 582.3,188.5 572.8,166.4 	"/>
	<polygon class="st1" points="537.7,181.4 537.9,174.4 530.6,157.9 503.5,157.9 501,160.1 498.1,196.8 507.6,198.7 	"/>
	<polygon class="st1" points="491.7,200 498.1,196.8 501,160.1 466.9,160.1 465.6,160.8 472.8,194.4 	"/>
	<polygon class="st1" points="600,184.8 636.4,209.1 645,154.7 612.2,149 	"/>
	<polygon class="st1" points="248.9,188.9 235.2,152.9 227.5,150.2 222.1,152.4 212.5,185.2 226.3,194.8 	"/>
	<polygon class="st1" points="413.5,195.7 435,192.9 443,161.3 396.2,163.2 400.1,186.1 	"/>
	<polygon class="st1" points="255.1,190.4 263.1,181 262,154.9 258.4,150.4 235.2,152.9 248.9,188.9 	"/>
	<polygon class="st1" points="285.7,177.6 295.3,186.8 303.8,187.4 317.9,164.6 302.1,146.3 299.2,147 286.4,159.7 	"/>
	<polygon class="st1" points="285.7,177.6 286.4,159.7 262,154.9 263.1,181 	"/>
	<polygon class="st1" points="582.3,188.5 600,184.8 612.2,149 589.5,128.5 577.8,138.1 572.8,166.4 	"/>
	<polygon class="st1" points="212.5,185.2 222.1,152.4 189.6,140.4 177.6,150.6 174.7,168.6 199.7,188.4 	"/>
	<polygon class="st1" points="350,183.4 358.4,167.7 342.9,144.5 317.9,164.6 346.6,183.7 	"/>
	<polygon class="st1" points="537.9,174.4 572.8,166.4 577.8,138.1 539.8,141.4 530.6,157.9 	"/>
	<polygon class="st1" points="149.3,187 174.7,168.6 177.6,150.6 134,130.4 111.8,155.9 133.5,181.5 	"/>
	<polygon class="st1" points="396.2,163.2 443,161.3 447.5,156.7 434.6,115.9 391.1,152.5 390.9,155.4 	"/>
	<polygon class="st1" points="262,154.9 286.4,159.7 299.2,147 279.2,135.4 264.6,136.6 258.4,150.4 	"/>
	<polygon class="st1" points="317.9,164.6 342.9,144.5 342.9,131.2 312.8,125.1 302.1,146.3 	"/>
	<polygon class="st1" points="358.4,167.7 390.9,155.4 391.1,152.5 366,112.3 342.9,131.2 342.9,144.5 	"/>
	<polygon class="st1" points="503.5,157.9 495.7,122.9 485,113.8 466.9,160.1 501,160.1 	"/>
	<polygon class="st1" points="530.6,157.9 539.8,141.4 531.1,122.9 495.7,122.9 503.5,157.9 	"/>
	<polygon class="st1" points="447.5,156.7 465.6,160.8 466.9,160.1 485,113.8 477.1,99.9 436.7,106.3 436.7,106.3 434.6,115.9 	"/>
	<polygon class="st1" points="235.2,152.9 258.4,150.4 264.6,136.6 257.8,118 232,125.1 227.5,150.2 	"/>
	<polygon class="st1" points="227.5,150.2 232,125.1 223.5,112.9 190.1,127.1 189.6,140.4 222.1,152.4 	"/>
	<polygon class="st1" points="299.2,147 302.1,146.3 312.8,125.1 295.8,83.7 279.2,135.4 	"/>
	<polygon class="st1" points="189.6,140.4 190.1,127.1 176.7,95.6 155.3,106 134,130.4 177.6,150.6 	"/>
	<polygon class="st1" points="612.2,149 645,154.7 650,131.2 649.5,116.3 638.3,105.3 622.2,101.3 591.9,98.6 589.5,128.5 	"/>
	<polygon class="st1" points="264.6,136.6 279.2,135.4 295.8,83.7 272,84.3 257.8,118 	"/>
	<polygon class="st1" points="391.1,152.5 434.6,115.9 436.7,106.3 369.1,95.5 366,112.3 	"/>
	<polygon class="st1" points="539.8,141.4 577.8,138.1 589.5,128.5 591.9,98.6 541.4,90.1 531.1,122.9 	"/>
	<polygon class="st1" points="342.9,131.2 366,112.3 369.1,95.5 295.8,83.7 312.8,125.1 	"/>
	<polygon class="st1" points="223.5,112.9 223.5,85.5 196.2,86.2 176.7,95.6 190.1,127.1 	"/>
	<polygon class="st1" points="232,125.1 257.8,118 272,84.3 223.5,85.5 223.5,112.9 	"/>
	<polygon class="st1" points="495.7,122.9 531.1,122.9 541.4,90.1 519.3,86.4 499.6,90.2 477.1,99.9 477.1,99.9 485,113.8 	"/>
</g>
<g id="sites">
	<circle class="st2" cx="562.2" cy="512.9" r="1.5"/>
	<circle class="st2" cx="458.9" cy="487" r="1.5"/>
	<circle class="st2" cx="534" cy="477.9" r="1.5"/>
	<circle class="st2" cx="569" cy="477.9" r="1.5"/>
	<circle class="st2" cx="609" cy="472.9" r="1.5"/>
	<circle class="st2" cx="414" cy="461.1" r="1.5"/>
	<circle class="st2" cx="506.9" cy="458.1" r="1.5"/>
	<circle class="st2" cx="361.8" cy="456.2" r="1.5"/>
	<circle class="st2" cx="301.6" cy="454.1" r="1.5"/>
	<circle class="st2" cx="276.9" cy="446.1" r="1.5"/>
	<circle class="st2" cx="588.4" cy="440.2" r="1.5"/>
	<circle class="st2" cx="456.3" cy="437.9" r="1.5"/>
	<circle class="st2" cx="248.9" cy="435.8" r="1.5"/>
	<circle class="st2" cx="494" cy="432.6" r="1.5"/>
	<circle class="st2" cx="327.3" cy="430.7" r="1.5"/>
	<circle class="st2" cx="401.4" cy="426.7" r="1.5"/>
	<circle class="st2" cx="471.1" cy="422.3" r="1.5"/>
	<circle class="st2" cx="537" cy="419.6" r="1.5"/>
	<circle class="st2" cx="566.3" cy="419.6" r="1.5"/>
	<circle class="st2" cx="617.4" cy="419.6" r="1.5"/>
	<circle class="st2" cx="361.8" cy="417.9" r="1.5"/>
	<circle class="st2" cx="195.5" cy="416.4" r="1.5"/>
	<circle class="st2" cx="256.5" cy="414.5" r="1.5"/>
	<circle class="st2" cx="425.6" cy="412.2" r="1.5"/>
	<circle class="st2" cx="511.5" cy="400.2" r="1.5"/>
	<circle class="st2" cx="307.9" cy="397.5" r="1.5"/>
	<circle class="st2" cx="553.6" cy="397.5" r="1.5"/>
	<circle class="st2" cx="220.9" cy="396.4" r="1.5"/>
	<circle class="st2" cx="454.2" cy="396.2" r="1.5"/>
	<circle class="st2" cx="361.8" cy="394.5" r="1.5"/>
	<circle class="st2" cx="385" cy="390.9" r="1.5"/>
	<circle class="st2" cx="430" cy="389.5" r="1.5"/>
	<circle class="st2" cx="602.3" cy="389.5" r="1.5"/>
	<circle class="st2" cx="278.4" cy="387.6" r="1.5"/>
	<circle class="st2" cx="338" cy="381.1" r="1.5"/>
	<circle class="st2" cx="416.8" cy="380.2" r="1.5"/>
	<circle class="st2" cx="536.1" cy="377.7" r="1.5"/>
	<circle class="st2" cx="568.6" cy="373" r="1.5"/>
	<circle class="st2" cx="164.1" cy="369.1" r="1.5"/>
	<circle class="st2" cx="237.4" cy="369.1" r="1.5"/>
	<circle class="st2" cx="263.7" cy="369.1" r="1.5"/>
	<circle class="st2" cx="401.4" cy="366.3" r="1.5"/>
	<circle class="st2" cx="480.1" cy="366.3" r="1.5"/>
	<circle class="st2" cx="322.8" cy="364.6" r="1.5"/>
	<circle class="st2" cx="209.2" cy="361.3" r="1.5"/>
	<circle class="st2" cx="522.2" cy="358.3" r="1.5"/>
	<circle class="st2" cx="355.5" cy="355" r="1.5"/>
	<circle class="st2" cx="295.7" cy="353.5" r="1.5"/>
	<circle class="st2" cx="446.5" cy="352.8" r="1.5"/>
	<circle class="st2" cx="382.6" cy="348" r="1.5"/>
	<circle class="st2" cx="399.9" cy="346.9" r="1.5"/>
	<circle class="st2" cx="642.2" cy="346.3" r="1.5"/>
	<circle class="st2" cx="325.2" cy="344.6" r="1.5"/>
	<circle class="st2" cx="421.2" cy="342.7" r="1.5"/>
	<circle class="st2" cx="616.4" cy="341" r="1.5"/>
	<circle class="st2" cx="164.1" cy="338.9" r="1.5"/>
	<circle class="st2" cx="489.8" cy="338.7" r="1.5"/>
	<circle class="st2" cx="533.2" cy="338.7" r="1.5"/>
	<circle class="st2" cx="565.6" cy="332.2" r="1.5"/>
	<circle class="st2" cx="234.4" cy="332" r="1.5"/>
	<circle class="st2" cx="287.1" cy="328.4" r="1.5"/>
	<circle class="st2" cx="501.2" cy="322.9" r="1.5"/>
	<circle class="st2" cx="523.7" cy="322.9" r="1.5"/>
	<circle class="st2" cx="312.6" cy="319.8" r="1.5"/>
	<circle class="st2" cx="384.1" cy="318.7" r="1.5"/>
	<circle class="st2" cx="164.1" cy="310.9" r="1.5"/>
	<circle class="st2" cx="347.9" cy="310.1" r="1.5"/>
	<circle class="st2" cx="201.1" cy="308.2" r="1.5"/>
	<circle class="st2" cx="603.3" cy="304.8" r="1.5"/>
	<circle class="st2" cx="456.6" cy="303.8" r="1.5"/>
	<circle class="st2" cx="419.7" cy="301.9" r="1.5"/>
	<circle class="st2" cx="502.2" cy="301.9" r="1.5"/>
	<circle class="st2" cx="541.6" cy="299.4" r="1.5"/>
	<circle class="st2" cx="223" cy="299.2" r="1.5"/>
	<circle class="st2" cx="330" cy="295.2" r="1.5"/>
	<circle class="st2" cx="113.6" cy="294.5" r="1.5"/>
	<circle class="st2" cx="585.6" cy="292" r="1.5"/>
	<circle class="st2" cx="286.2" cy="291.6" r="1.5"/>
	<circle class="st2" cx="248.1" cy="286.5" r="1.5"/>
	<circle class="st2" cx="562.7" cy="285.7" r="1.5"/>
	<circle class="st2" cx="391.5" cy="285" r="1.5"/>
	<circle class="st2" cx="438.2" cy="283.2" r="1.5"/>
	<circle class="st2" cx="516.1" cy="282.3" r="1.5"/>
	<circle class="st2" cx="638.3" cy="281.1" r="1.5"/>
	<circle class="st2" cx="152.1" cy="278.7" r="1.5"/>
	<circle class="st2" cx="188.3" cy="277.5" r="1.5"/>
	<circle class="st2" cx="353.8" cy="276.8" r="1.5"/>
	<circle class="st2" cx="590.7" cy="274.9" r="1.5"/>
	<circle class="st2" cx="471.1" cy="269.1" r="1.5"/>
	<circle class="st2" cx="419.7" cy="268.4" r="1.5"/>
	<circle class="st2" cx="242" cy="266.7" r="1.5"/>
	<circle class="st2" cx="274.8" cy="266.7" r="1.5"/>
	<circle class="st2" cx="318.4" cy="263.6" r="1.5"/>
	<circle class="st2" cx="610.2" cy="260.8" r="1.5"/>
	<circle class="st2" cx="209.2" cy="258.1" r="1.5"/>
	<circle class="st2" cx="560.4" cy="257.7" r="1.5"/>
	<circle class="st2" cx="450" cy="254.9" r="1.5"/>
	<circle class="st2" cx="393.8" cy="249" r="1.5"/>
	<circle class="st2" cx="346.4" cy="246.3" r="1.5"/>
	<circle class="st2" cx="527.4" cy="243.1" r="1.5"/>
	<circle class="st2" cx="229.4" cy="238.9" r="1.5"/>
	<circle class="st2" cx="421.8" cy="237.9" r="1.5"/>
	<circle class="st2" cx="153.8" cy="237.4" r="1.5"/>
	<circle class="st2" cx="585.6" cy="234.1" r="1.5"/>
	<circle class="st2" cx="261.2" cy="229.5" r="1.5"/>
	<circle class="st2" cx="371.1" cy="228.6" r="1.5"/>
	<circle class="st2" cx="191.3" cy="226.1" r="1.5"/>
	<circle class="st2" cx="313" cy="221.4" r="1.5"/>
	<circle class="st2" cx="506.7" cy="220.4" r="1.5"/>
	<circle class="st2" cx="563.9" cy="217.7" r="1.5"/>
	<circle class="st2" cx="472.3" cy="216.2" r="1.5"/>
	<circle class="st2" cx="428.1" cy="214.3" r="1.5"/>
	<circle class="st2" cx="395.9" cy="211.4" r="1.5"/>
	<circle class="st2" cx="132.9" cy="211.3" r="1.5"/>
	<circle class="st2" cx="210.6" cy="208.2" r="1.5"/>
	<circle class="st2" cx="242" cy="208.2" r="1.5"/>
	<circle class="st2" cx="342.6" cy="207.1" r="1.5"/>
	<circle class="st2" cx="598.9" cy="205.5" r="1.5"/>
	<circle class="st2" cx="295.9" cy="205.4" r="1.5"/>
	<circle class="st2" cx="529" cy="202.5" r="1.5"/>
	<circle class="st2" cx="107.2" cy="195.4" r="1.5"/>
	<circle class="st2" cx="177.8" cy="193.9" r="1.5"/>
	<circle class="st2" cx="277.1" cy="190.6" r="1.5"/>
	<circle class="st2" cx="323" cy="183.6" r="1.5"/>
	<circle class="st2" cx="374.8" cy="182.1" r="1.5"/>
	<circle class="st2" cx="454.7" cy="182.1" r="1.5"/>
	<circle class="st2" cx="560.4" cy="179.3" r="1.5"/>
	<circle class="st2" cx="515.1" cy="178.3" r="1.5"/>
	<circle class="st2" cx="484.3" cy="175.8" r="1.5"/>
	<circle class="st2" cx="618.7" cy="175.8" r="1.5"/>
	<circle class="st2" cx="233.4" cy="175.4" r="1.5"/>
	<circle class="st2" cx="422.7" cy="173.9" r="1.5"/>
	<circle class="st2" cx="251.5" cy="168.6" r="1.5"/>
	<circle class="st2" cx="298.6" cy="168.6" r="1.5"/>
	<circle class="st2" cx="273.6" cy="167.6" r="1.5"/>
	<circle class="st2" cx="590.7" cy="166.3" r="1.5"/>
	<circle class="st2" cx="200.1" cy="165.7" r="1.5"/>
	<circle class="st2" cx="337.4" cy="161.9" r="1.5"/>
	<circle class="st2" cx="556.1" cy="160.2" r="1.5"/>
	<circle class="st2" cx="151.5" cy="157.7" r="1.5"/>
	<circle class="st2" cx="421.8" cy="150.3" r="1.5"/>
	<circle class="st2" cx="277.6" cy="147.4" r="1.5"/>
	<circle class="st2" cx="324.7" cy="146.1" r="1.5"/>
	<circle class="st2" cx="361" cy="146.1" r="1.5"/>
	<circle class="st2" cx="484.3" cy="144.4" r="1.5"/>
	<circle class="st2" cx="515.1" cy="137.6" r="1.5"/>
	<circle class="st2" cx="464.8" cy="136.8" r="1.5"/>
	<circle class="st2" cx="247.9" cy="134.1" r="1.5"/>
	<circle class="st2" cx="214" cy="128" r="1.5"/>
	<circle class="st2" cx="288.9" cy="128" r="1.5"/>
	<circle class="st2" cx="166.2" cy="126.1" r="1.5"/>
	<circle class="st2" cx="627.3" cy="125.9" r="1.5"/>
	<circle class="st2" cx="275.7" cy="123.8" r="1.5"/>
	<circle class="st2" cx="398.6" cy="122.7" r="1.5"/>
	<circle class="st2" cx="552.6" cy="120" r="1.5"/>
	<circle class="st2" cx="331.9" cy="110.3" r="1.5"/>
	<circle class="st2" cx="206" cy="109.2" r="1.5"/>
	<circle class="st2" cx="241.1" cy="109.2" r="1.5"/>
	<circle class="st2" cx="515.1" cy="108.2" r="1.5"/>
	<circle class="st2" cx="255.7" cy="317.9" r="1.5"/>
</g>
<g id="Numbers">
	<text transform="matrix(1 0 0 1 445.5285 307.8979)" class="st3 st4">51</text>
	<text transform="matrix(1 0 0 1 437.6706 351.1309)" class="st3 st4">22</text>
	<text transform="matrix(1 0 0 1 412.2116 345.7983)" class="st3 st4">30</text>
	<text transform="matrix(1 0 0 1 392.0016 341.7988)" class="st3 st4">170</text>
	<text id="_x37_6_x2F_78" transform="matrix(1 0 0 1 389.3542 373.7744)" class="st3 st4">76, 78</text>
	<text transform="matrix(1 0 0 1 375.9928 354.0894)" class="st3 st4">119</text>
	<text transform="matrix(1 0 0 1 423.8073 286.9478)" class="st3 st4">144</text>
	<text transform="matrix(1 0 0 1 410.0114 273.6577)" class="st3 st4">47</text>
	<text transform="matrix(1 0 0 1 412.6774 311.748)" class="st3 st4">46</text>
	<text transform="matrix(1 0 0 1 381.6344 290.9165)" class="st3 st4">45</text>
	<text transform="matrix(1 0 0 1 386.776 257.999)" class="st3 st4">44</text>
	<text transform="matrix(1 0 0 1 442.091 251.1841)" class="st3 st4">153</text>
	<text transform="matrix(1 0 0 1 461.6252 273.6577)" class="st3 st4">52</text>
	<text transform="matrix(1 0 0 1 414.1052 245.0435)" class="st3 st4">48</text>
	<text transform="matrix(1 0 0 1 390.2985 218.5703)" class="st3 st4">43</text>
	<text transform="matrix(1 0 0 1 415.6628 216.2852)" class="st3 st4">142</text>
	<text transform="matrix(1 0 0 1 463.2868 217.4326)" class="st3 st4">53</text>
	<text transform="matrix(1 0 0 1 476.3727 185.2461)" class="st3 st4">160</text>
	<text transform="matrix(1 0 0 1 518.1979 178.9609)" class="st3 st4">9</text>
	<text transform="matrix(1 0 0 1 548.1735 178.9609)" class="st3 st4">124</text>
	<text transform="matrix(1 0 0 1 547.0402 161.5815)" class="st3 st4">54</text>
	<text transform="matrix(1 0 0 1 582.8356 163.3438)" class="st3 st4">122</text>
	<text transform="matrix(1 0 0 1 610.8322 172.5151)" class="st3 st4">123</text>
	<text transform="matrix(1 0 0 1 584.6652 242.4116)" class="st3 st4">85</text>
	<text id="_x31_29_x2F_139" transform="matrix(1 0 0 1 637.6464 276.3668)" class="st3 st4">129, 139</text>
	<text transform="matrix(1 0 0 1 584.2009 271.521)" class="st3 st4">86</text>
	<text transform="matrix(1 0 0 1 611.4948 257.999)" class="st3 st4">59</text>
	<text transform="matrix(1 0 0 1 557.134 263.9028)" class="st3 st4">60</text>
	<text transform="matrix(1 0 0 1 560.7048 292.3115)" class="st3 st4">19</text>
	<text transform="matrix(1 0 0 1 577.6935 288.8525)" class="st3 st4">105</text>
	<text transform="matrix(1 0 0 1 599.8762 301.4536)" class="st3 st4">87</text>
	<text transform="matrix(1 0 0 1 639.8171 344.0835)" class="st3 st4">152</text>
	<text transform="matrix(1 0 0 1 591.9982 386.9102)" class="st3 st4">107</text>
	<text transform="matrix(1 0 0 1 564.1926 379.6729)" class="st3 st4">106</text>
	<text transform="matrix(1 0 0 1 542.5212 395.3555)" class="st3 st4">163</text>
	<text transform="matrix(1 0 0 1 557.696 416.6113)" class="st3 st4">125</text>
	<text transform="matrix(1 0 0 1 614.8752 415.313)" class="st3 st4">151</text>
	<text transform="matrix(1 0 0 1 585.6213 436.6865)" class="st3 st4">128</text>
	<text transform="matrix(1 0 0 1 608.381 479.7202)" class="st3 st4">150</text>
	<text transform="matrix(1 0 0 1 563.7272 513.0454)" class="st3 st4">138</text>
	<text transform="matrix(1 0 0 1 565.0139 486.1929)" class="st3 st4">137</text>
	<text transform="matrix(1 0 0 1 534.5417 474.3848)" class="st3 st4">127</text>
	<text transform="matrix(1 0 0 1 504.2614 465.4253)" class="st3 st4">126</text>
	<text transform="matrix(1 0 0 1 493.5939 429.0571)" class="st3 st4">165</text>
	<text transform="matrix(1 0 0 1 462.4445 427.7466)" class="st3 st4">111</text>
	<text transform="matrix(1 0 0 1 458.0168 444.4341)" class="st3 st4">16</text>
	<text transform="matrix(1 0 0 1 454.1926 403.3145)" class="st3 st4">82</text>
	<text transform="matrix(1 0 0 1 525.319 422.7407)" class="st3 st4">109</text>
	<text transform="matrix(1 0 0 1 428.279 418.2222)" class="st3 st4">34</text>
	<text transform="matrix(1 0 0 1 385.8776 388.0801)" class="st3 st4">29</text>
	<text transform="matrix(1 0 0 1 397.0593 433.7871)" class="st3 st4">21</text>
	<text transform="matrix(1 0 0 1 361.8083 462.4458)" class="st3 st4">36</text>
	<text id="_x39_9_x2F_118" transform="matrix(1 0 0 1 349.8073 426.519)" class="st3 st4">99, 118</text>
	<text transform="matrix(1 0 0 1 356.2067 402.2627)" class="st3 st4">35</text>
	<text transform="matrix(1 0 0 1 324.4968 426.5195)" class="st3 st4">17</text>
	<text transform="matrix(1 0 0 1 327.0212 385.0723)" class="st3 st4">134</text>
	<text transform="matrix(1 0 0 1 354.0095 362.5903)" class="st3 st4">3</text>
	<text transform="matrix(1 0 0 1 321.9362 361.1245)" class="st3 st4">4</text>
	<text transform="matrix(1 0 0 1 317.1638 348.7563)" class="st3 st4">62</text>
	<text transform="matrix(1 0 0 1 307.821 325.9908)" class="st3 st4">73</text>
	<text id="_x37__x2F_74" transform="matrix(1 0 0 1 284.4196 361.1245)" class="st3 st4">7, 74</text>
	<text transform="matrix(1 0 0 1 307.6335 393.9825)" class="st3 st4">23</text>
	<text transform="matrix(1 0 0 1 275.903 385.1216)" class="st3 st4">103</text>
	<text transform="matrix(1 0 0 1 298.9763 450.9692)" class="st3 st4">98</text>
	<text transform="matrix(1 0 0 1 252.402 421.1807)" class="st3 st4">15</text>
	<text transform="matrix(1 0 0 1 188.6432 412.6284)" class="st3 st4">175</text>
	<text transform="matrix(1 0 0 1 214.9255 392.6001)" class="st3 st4">133</text>
	<text transform="matrix(1 0 0 1 210.2839 367.6997)" class="st3 st4">5</text>
	<text transform="matrix(1 0 0 1 161.7428 366.3457)" class="st3 st4">176</text>
	<text id="_x36__x2F_25" transform="matrix(1 0 0 1 154.3464 335.1323)" class="st3 st4">6, 25</text>
	<text id="_x31_4_x2F_75" transform="matrix(1 0 0 1 147.6149 285.3071)" class="st3 st4">14, 75</text>
	<text transform="matrix(1 0 0 1 180.4089 285.2578)" class="st3 st4">114</text>
	<text transform="matrix(1 0 0 1 198.4098 315.416)" class="st3 st4">69</text>
	<text transform="matrix(1 0 0 1 199.7829 259.3203)" class="st3 st4">24</text>
	<text transform="matrix(1 0 0 1 188.0446 233.6162)" class="st3 st4">68</text>
	<text transform="matrix(1 0 0 1 141.2184 245.0435)" class="st3 st4">72</text>
	<text transform="matrix(1 0 0 1 132.4782 218.5703)" class="st3 st4">11</text>
	<text transform="matrix(1 0 0 1 210.1335 214.5757)" class="st3 st4">67</text>
	<text transform="matrix(1 0 0 1 258.9391 236.5747)" class="st3 st4">10</text>
	<text transform="matrix(1 0 0 1 295.8932 213.1538)" class="st3 st4">65</text>
	<text transform="matrix(1 0 0 1 295.7409 175.8633)" class="st3 st4">26</text>
	<text transform="matrix(1 0 0 1 324.4968 186.7697)" class="st3 st4">41</text>
	<text transform="matrix(1 0 0 1 326.8991 165.0581)" class="st3 st4">154</text>
	<text transform="matrix(1 0 0 1 318.5397 147.1553)" class="st3 st4">8</text>
	<text transform="matrix(1 0 0 1 360.2946 152.5205)" class="st3 st4">38</text>
	<text transform="matrix(1 0 0 1 329.1276 117.6763)" class="st3 st4">32</text>
	<text id="_x37_7_x2F_80" transform="matrix(1 0 0 1 235.7594 216.2852)" class="st3 st4">77, 80</text>
	<text transform="matrix(1 0 0 1 223.2184 246.2246)" class="st3 st4">116</text>
	<text transform="matrix(1 0 0 1 269.7311 198.3667)" class="st3 st4">117</text>
	<text transform="matrix(1 0 0 1 271.0778 174.4224)" class="st3 st4">79</text>
	<text transform="matrix(1 0 0 1 248.2467 175.9126)" class="st3 st4">156</text>
	<text transform="matrix(1 0 0 1 231.8415 182.1973)" class="st3 st4">66</text>
	<text transform="matrix(1 0 0 1 202.7555 169.9858)" class="st3 st4">90</text>
	<text id="_x31_43_x2F_145" transform="matrix(1 0 0 1 138.7399 164.9073)" class="st3 st4">143, 145</text>
	<text transform="matrix(1 0 0 1 169.8942 190.8184)" class="st3 st4">12</text>
	<text transform="matrix(1 0 0 1 162.5202 133.0474)" class="st3 st4">147</text>
	<text transform="matrix(1 0 0 1 96.2429 195.6431)" class="st3 st4">174</text>
	<text transform="matrix(1 0 0 1 281.363 133.0474)" class="st3 st4">37</text>
	<text transform="matrix(1 0 0 1 264.3474 126.9673)" class="st3 st4">157</text>
	<text transform="matrix(1 0 0 1 269.7311 154.668)" class="st3 st4">155</text>
	<text transform="matrix(1 0 0 1 249.3669 140.5747)" class="st3 st4">13</text>
	<text transform="matrix(1 0 0 1 235.8034 116.3008)" class="st3 st4">146</text>
	<text id="_x39_1_x2F_94" transform="matrix(1 0 0 1 199.2311 131.9175)" class="st3 st4">91, 94</text>
	<text transform="matrix(1 0 0 1 205.6921 114.7544)" class="st3 st4">148</text>
	<text transform="matrix(1 0 0 1 157.2614 305.834)" class="st3 st4">115</text>
	<text transform="matrix(1 0 0 1 116.153 296.104)" class="st3 st4">173</text>
	<text transform="matrix(1 0 0 1 231.8415 339.5361)" class="st3 st4">97</text>
	<text transform="matrix(1 0 0 1 278.6852 329.584)" class="st3 st4">63</text>
	<text id="_x31__x2F_2" transform="matrix(1 0 0 1 251.6921 325.9908)" class="st3 st4">1, 2</text>
	<text transform="matrix(1 0 0 1 278.5016 297.4082)" class="st3 st4">64</text>
	<text transform="matrix(1 0 0 1 218.7145 305.834)" class="st3 st4">93</text>
	<text transform="matrix(1 0 0 1 243.4753 293.8257)" class="st3 st4">104</text>
	<text transform="matrix(1 0 0 1 270.3044 273.6577)" class="st3 st4">92</text>
	<text transform="matrix(1 0 0 1 239.4733 263.127)" class="st3 st4">71</text>
	<text transform="matrix(1 0 0 1 272.4987 452.5801)" class="st3 st4">166</text>
	<text transform="matrix(1 0 0 1 239.9303 433.7378)" class="st3 st4">167</text>
	<text transform="matrix(1 0 0 1 262.3913 367.3125)" class="st3 st4">70</text>
	<text transform="matrix(1 0 0 1 234.5925 365.5483)" class="st3 st4">135</text>
	<text id="_x31_30_x2F_131" transform="matrix(1 0 0 1 419.3156 396.8701)" class="st3 st4">130, 131</text>
	<text id="_x31_00_x2F_112" transform="matrix(1 0 0 1 407.9011 378.0913)" class="st3 st4">100, 112</text>
	<text transform="matrix(1 0 0 1 411.8093 468.3838)" class="st3 st4">113</text>
	<text transform="matrix(1 0 0 1 455.2565 494.3823)" class="st3 st4">101</text>
	<text transform="matrix(1 0 0 1 609.4992 349.4165)" class="st3 st4">108</text>
	<text transform="matrix(1 0 0 1 558.298 328.4409)" class="st3 st4">31</text>
	<text transform="matrix(1 0 0 1 528.176 345.7979)" class="st3 st4">121</text>
	<text transform="matrix(1 0 0 1 526.0856 321.8833)" class="st3 st4">83</text>
	<text transform="matrix(1 0 0 1 514.3015 357.23)" class="st3 st4">18</text>
	<text transform="matrix(1 0 0 1 525.319 375.1328)" class="st3 st4">120</text>
	<text id="_x31_02_x2F_110" transform="matrix(1 0 0 1 503.0778 405.9556)" class="st3 st4">102, 110</text>
	<text transform="matrix(1 0 0 1 479.4406 336.4404)" class="st3 st4">162</text>
	<text transform="matrix(1 0 0 1 494.3063 329.584)" class="st3 st4">56</text>
	<text transform="matrix(1 0 0 1 471.7394 367.3613)" class="st3 st4">81</text>
	<text transform="matrix(1 0 0 1 540.8366 305.834)" class="st3 st4">88</text>
	<text transform="matrix(1 0 0 1 521.3298 283.5508)" class="st3 st4">57</text>
	<text transform="matrix(1 0 0 1 528.8371 249.4287)" class="st3 st4">58</text>
	<text transform="matrix(1 0 0 1 507.2258 219.3369)" class="st3 st4">168</text>
	<text transform="matrix(1 0 0 1 502.1642 307.8975)" class="st3 st4">161</text>
	<text transform="matrix(1 0 0 1 621.7311 134.4156)" class="st3 st4">172</text>
	<text transform="matrix(1 0 0 1 589.7199 205.6245)" class="st3 st4">20</text>
	<text transform="matrix(1 0 0 1 560.8918 213.1538)" class="st3 st4">55</text>
	<text transform="matrix(1 0 0 1 519.3176 201.147)" class="st3 st4">84</text>
	<text transform="matrix(1 0 0 1 485.9508 149.2505)" class="st3 st4">159</text>
	<text transform="matrix(1 0 0 1 458.1437 142.1989)" class="st3 st4">33</text>
	<text transform="matrix(1 0 0 1 399.0485 128.8916)" class="st3 st4">39</text>
	<text transform="matrix(1 0 0 1 443.2336 185.2461)" class="st3 st4">141</text>
	<text transform="matrix(1 0 0 1 412.6774 174.4224)" class="st3 st4">49</text>
	<text transform="matrix(1 0 0 1 412.2126 152.5205)" class="st3 st4">50</text>
	<text transform="matrix(1 0 0 1 362.196 184.3262)" class="st3 st4">136</text>
	<text transform="matrix(1 0 0 1 333.4479 210.1953)" class="st3 st4">89</text>
	<text transform="matrix(1 0 0 1 357.9987 233.6626)" class="st3 st4">149</text>
	<text transform="matrix(1 0 0 1 311.3474 228.7104)" class="st3 st4">42</text>
	<text transform="matrix(1 0 0 1 333.8112 249.4287)" class="st3 st4">132</text>
	<text transform="matrix(1 0 0 1 341.819 279.9009)" class="st3 st4">164</text>
	<text transform="matrix(1 0 0 1 331.2468 297.3594)" class="st3 st4">158</text>
	<text transform="matrix(1 0 0 1 343.6491 317.0806)" class="st3 st4">27</text>
	<text transform="matrix(1 0 0 1 378.4899 325.9908)" class="st3 st4">28</text>
	<text transform="matrix(1 0 0 1 320.0329 268.4731)" class="st3 st4">61</text>
	<text transform="matrix(1 0 0 1 500.0895 113.4448)" class="st3 st4">40, 95</text>
	<text id="_x39_6_x2F_140" transform="matrix(1 0 0 1 510.7385 143.4839)" class="st3 st4">96, 140</text>
	<text id="_x31_69_x2F_171" transform="matrix(1 0 0 1 535.9816 115.5542)" class="st3 st4">169, 171</text>
</g>
</svg>
